<?xml version="1.0" encoding="UTF-8"?>
<!-- Generator: visioncortex VTracer 0.6.12 -->
<svg version="1.1" xmlns="http://www.w3.org/2000/svg" width="2526" height="3573">
<path d="M0.0,0.0 L1578.8,0.0 L2052.4,223.3 L2368.1,669.9 L2526.0,1339.9 L2526.0,2233.1 L2368.1,2903.1 L2052.4,3349.7 L1578.8,3573.0 L0.0,3573.0 Z" fill="#FBFBFB" transform="translate(0,0)"/>
<path d="M0.0,0.0 L200.6,0.0 L260.8,223.2 L300.9,669.6 L321.0,1339.1 L321.0,2231.9 L438.7,2901.4 L674.1,3347.8 L1027.1,3571.0 L1497.9,3571.0 L1850.9,3347.8 L2086.3,2901.4 L2204.0,2231.9 L2204.0,1339.1 L2224.1,669.6 L2264.4,223.2 L2324.8,0.0 L2405.2,0.0 L2465.6,223.3 L2505.9,669.9 L2526.0,1339.9 L2526.0,2233.1 L2368.1,2903.1 L2052.4,3349.7 L1578.8,3573.0 L0.0,3573.0 Z" fill="#FEFEFE" transform="translate(0,0)"/>
<path d="M0.0,0.0 L46.4,15.2 L108.1,30.8 L124.5,38.6 L134.0,48.9 L136.6,61.5 L117.8,117.2 L117.6,123.5 L123.6,127.8 L147.8,129.9 L254.1,124.4 L377.5,126.1 L387.6,130.2 L398.9,141.9 L458.6,212.6 L478.9,240.5 L473.9,293.2 L447.2,449.5 L442.5,496.0 L445.5,496.0 L450.4,480.9 L476.9,344.8 L489.6,299.6 L504.4,269.9 L521.1,255.5 L609.2,256.1 L665.2,247.5 L688.6,238.5 L722.2,219.9 L737.2,215.6 L774.4,211.2 L800.1,203.9 L831.9,190.6 L913.4,146.5 L946.2,152.0 L968.1,188.0 L979.0,254.5 L979.0,351.5 L873.4,424.2 L662.3,472.8 L345.6,497.0 L-76.6,497.0 L-392.2,493.4 L-601.2,486.1 L-703.6,475.2 L-688.4,433.1 L-668.1,397.2 L-584.3,283.6 L-544.7,237.6 L-519.6,212.9 L-488.6,188.2 L-363.2,108.6 L-342.6,94.7 L-328.1,81.4 L-321.6,80.6 L-297.0,89.2 L-254.2,110.1 L-244.5,111.1 L-237.6,116.1 L-160.3,200.0 L-114.6,235.9 L-103.1,247.8 L-87.8,274.8 L-76.8,305.6 L-47.8,467.2 L-40.9,487.2 L-37.8,492.6 L-32.1,494.1 L-32.4,480.4 L-45.5,429.1 L-71.1,286.8 L-82.4,259.8 L-96.9,240.1 L-115.4,222.1 L-121.1,212.5 L-122.9,202.0 L-120.6,190.6 L-106.8,165.8 L-55.5,96.4 L-22.6,34.6 L-1.0,1.0 Z" fill="#FEFEFE" transform="translate(1222,3072)"/>
<path d="M0.0,0.0 L0.6,407.5 L-4.3,530.3 L-14.4,612.9 L-29.8,655.4 L-69.6,660.6 L-105.0,668.5 L-134.1,678.2 L-151.8,687.0 L-290.1,854.2 L-284.5,856.8 L-253.6,826.9 L-195.0,760.8 L-159.4,715.0 L-138.5,694.1 L-127.9,687.2 L-102.7,678.6 L-37.2,668.5 L-18.1,685.0 L-5.4,721.0 L1.0,776.5 L-0.9,907.5 L-4.6,944.5 L-10.2,962.5 L-26.8,958.4 L-30.1,942.5 L-39.1,938.0 L-55.8,940.8 L-89.8,953.8 L-102.1,953.0 L-112.4,944.3 L-144.5,900.6 L-151.2,896.7 L-167.0,895.0 L-253.9,909.6 L-285.0,920.1 L-308.6,941.1 L-327.4,962.9 L-362.1,1014.9 L-367.5,1019.8 L-382.3,1025.4 L-402.7,1024.1 L-430.3,1011.0 L-456.1,990.0 L-481.9,958.8 L-498.6,948.0 L-515.4,946.1 L-540.7,949.7 L-548.5,954.2 L-560.1,967.8 L-582.2,910.3 L-591.0,900.0 L-591.8,895.3 L-583.5,883.9 L-557.2,863.2 L-554.4,854.8 L-558.2,843.4 L-571.2,838.1 L-576.5,831.8 L-571.8,798.6 L-570.1,757.9 L-574.9,599.3 L-583.0,562.9 L-575.8,516.6 L-560.4,457.8 L-540.4,394.6 L-524.0,358.9 L-478.1,293.1 L-475.9,287.1 L-462.4,274.6 L-441.2,244.8 L-428.9,220.2 L-422.9,196.0 L-413.4,178.7 L-381.1,148.2 L-341.5,136.0 L-324.0,133.0 L-264.6,139.2 L-254.7,145.7 L-250.6,156.1 L-252.2,170.4 L-276.2,224.6 L-301.1,272.9 L-304.2,281.8 L-304.1,286.4 L-300.9,286.6 L-281.8,259.6 L-239.9,170.2 L-231.1,157.9 L-220.7,150.6 L-208.8,148.5 L-175.6,154.9 L-162.5,153.3 L-149.4,130.8 L-2.0,3.0 Z" fill="#FEFEFE" transform="translate(2200,343)"/>
<path d="M0.0,0.0 L25.9,3.0 L57.6,27.8 L99.6,77.2 L129.6,119.6 L133.4,127.4 L137.7,153.9 L137.8,195.2 L140.7,230.3 L144.1,242.9 L158.9,267.2 L175.4,282.1 L197.9,293.0 L274.2,308.0 L278.6,321.5 L272.9,346.5 L257.0,383.0 L187.6,514.2 L185.4,529.2 L186.9,538.9 L189.3,541.6 L197.2,543.0 L201.4,557.1 L199.0,589.9 L194.2,614.2 L191.5,619.9 L185.7,622.9 L178.4,631.1 L71.3,868.3 L61.2,887.1 L50.9,900.1 L48.1,908.9 L30.1,914.8 L18.8,922.2 L14.1,934.2 L16.3,944.5 L7.3,949.3 L-3.4,959.6 L-54.4,1036.9 L-76.2,1042.0 L-86.5,1052.9 L-91.4,1054.9 L-107.1,1051.0 L-128.6,1038.4 L-160.9,1015.4 L-167.1,1007.1 L-168.7,998.7 L-165.8,990.2 L-153.6,975.1 L-153.0,967.5 L-168.3,959.9 L-212.9,930.1 L-373.8,812.0 L-394.4,798.8 L-399.4,798.9 L-400.0,796.9 L-388.0,707.6 L-379.8,668.8 L-317.3,532.4 L-295.9,476.5 L-288.8,436.4 L-282.4,378.8 L-270.4,337.6 L-270.1,329.7 L-256.8,303.5 L-229.5,223.6 L-228.9,173.6 L-225.3,154.9 L-221.0,150.0 L-191.4,136.4 L-170.3,122.2 L-99.7,54.5 L-68.2,30.2 L-23.2,7.2 L0.0,2.0 Z" fill="#FEFEFE" transform="translate(1021,301)"/>
<path d="M0.0,0.0 L26.2,28.9 L37.0,37.6 L48.6,40.1 L62.6,47.4 L84.0,51.1 L92.9,56.9 L109.9,60.1 L112.1,62.9 L118.2,62.8 L130.1,68.4 L150.9,93.1 L171.1,105.5 L176.6,111.7 L182.4,133.6 L184.6,164.3 L193.5,191.8 L210.2,228.5 L222.2,293.4 L256.6,374.2 L274.4,408.7 L283.1,418.4 L283.6,433.7 L273.9,477.9 L274.1,486.6 L276.9,491.0 L286.9,488.6 L294.9,476.4 L304.5,437.8 L305.5,411.0 L294.9,402.9 L281.8,381.2 L250.1,309.0 L236.8,263.6 L224.2,205.1 L202.9,169.0 L201.0,131.8 L205.1,114.9 L233.0,119.5 L273.2,119.9 L279.1,121.5 L282.2,124.9 L296.1,163.5 L345.0,240.8 L352.5,256.8 L355.9,269.6 L355.7,292.9 L359.0,298.4 L373.5,301.1 L414.8,303.1 L476.4,297.6 L486.7,323.1 L493.6,375.7 L497.0,455.5 L497.0,562.5 L492.3,643.6 L482.9,698.9 L468.9,728.2 L413.4,742.3 L342.7,771.1 L282.8,785.4 L268.0,785.1 L262.8,780.8 L254.9,761.5 L248.9,735.2 L241.2,723.6 L226.1,719.3 L205.9,706.7 L190.2,702.6 L181.8,702.4 L177.5,703.9 L177.5,707.1 L198.6,724.9 L229.2,743.6 L233.6,750.4 L236.9,768.4 L205.8,773.5 L142.9,774.0 L-78.2,761.1 L-175.2,741.8 L-242.8,711.8 L-280.8,671.1 L-302.0,540.0 L-300.3,534.8 L-282.1,529.9 L-167.4,512.2 L-101.4,506.1 L-85.6,507.4 L111.8,656.0 L150.9,690.9 L168.2,699.3 L185.2,701.0 L188.5,698.8 L186.5,694.2 L148.0,662.5 L208.2,575.1 L213.2,569.8 L242.0,561.0 L258.2,550.9 L269.5,538.1 L280.8,518.2 L287.6,495.8 L284.2,492.6 L275.5,492.0 L265.9,500.1 L252.3,527.6 L243.6,539.1 L234.2,544.4 L213.0,550.4 L202.9,557.6 L176.6,588.6 L138.0,642.4 L129.1,649.2 L50.8,595.6 L-62.9,511.4 L-83.4,493.5 L-91.9,489.8 L-118.5,459.4 L-159.4,402.9 L-167.4,377.8 L-178.1,327.5 L-181.6,304.6 L-179.5,295.9 L-121.4,283.9 L-47.6,262.5 L-22.1,249.9 L-12.5,241.2 L-7.2,231.9 L-4.5,209.2 L-9.1,186.3 L-24.1,146.8 L-52.8,88.4 L-60.2,67.6 L-50.0,51.9 L-3.0,3.0 Z" fill="#FEFEFE" transform="translate(1704,2239)"/>
<path d="M0.0,0.0 L16.2,0.6 L19.4,5.6 L-13.4,112.6 L-56.1,228.2 L-59.4,244.8 L-58.0,254.0 L-46.2,259.5 L-29.9,279.0 L-16.4,288.4 L23.2,292.7 L50.0,303.0 L75.5,316.9 L85.2,332.1 L96.1,361.8 L99.4,382.8 L98.6,404.3 L88.1,440.9 L73.1,470.5 L26.2,519.8 L16.0,539.0 L11.6,558.1 L2.2,579.6 L-51.8,654.6 L-81.8,700.6 L-99.8,737.8 L-120.4,797.8 L-135.8,856.6 L-143.0,906.1 L-134.9,939.3 L-134.4,1004.9 L-128.9,1116.6 L-129.2,1135.4 L-136.2,1158.1 L-136.5,1166.8 L-131.2,1177.6 L-116.1,1185.8 L-113.8,1195.4 L-121.4,1205.5 L-148.6,1228.0 L-152.4,1236.1 L-142.1,1251.4 L-122.8,1298.1 L-117.8,1302.9 L-112.9,1302.4 L-103.8,1292.1 L-92.9,1285.5 L-70.5,1284.6 L-58.8,1286.8 L-46.0,1294.7 L-23.6,1323.3 L3.1,1347.0 L24.2,1360.2 L43.4,1365.6 L62.6,1364.1 L72.5,1359.8 L78.6,1354.1 L125.2,1286.0 L153.4,1261.0 L201.8,1247.1 L265.1,1235.5 L285.0,1235.4 L295.5,1240.6 L327.6,1284.1 L337.9,1292.2 L350.2,1293.4 L390.6,1278.9 L404.9,1278.8 L412.4,1286.1 L416.6,1300.8 L436.1,1305.0 L439.4,1307.5 L441.0,1315.9 L432.9,1320.5 L399.8,1315.5 L394.9,1312.9 L390.6,1301.2 L354.0,1311.9 L331.4,1309.9 L318.9,1303.8 L295.2,1271.9 L278.6,1257.8 L269.4,1255.0 L246.7,1255.9 L238.6,1259.4 L188.3,1267.1 L163.6,1278.1 L146.5,1293.0 L129.0,1313.6 L100.1,1358.6 L88.9,1371.9 L72.2,1379.9 L50.1,1382.9 L22.2,1379.0 L9.5,1373.8 L-34.2,1338.9 L-63.9,1306.1 L-74.8,1302.5 L-86.8,1302.5 L-92.9,1306.2 L-93.8,1311.4 L-79.1,1311.8 L-69.9,1315.2 L-44.2,1334.2 L-0.2,1372.5 L36.2,1394.4 L39.4,1402.6 L38.9,1413.8 L35.1,1417.4 L32.7,1427.7 L21.2,1446.0 L5.2,1463.8 L-5.1,1467.0 L-1.9,1457.4 L26.6,1416.4 L29.0,1406.6 L25.2,1396.0 L1.8,1386.8 L-7.2,1380.9 L-63.7,1328.8 L-73.1,1321.4 L-83.4,1317.4 L-92.8,1321.9 L-96.9,1330.8 L-97.7,1384.9 L-103.1,1412.2 L-111.3,1425.6 L-107.9,1436.9 L-110.5,1449.6 L-120.6,1454.9 L-132.6,1452.9 L-145.8,1465.2 L-153.4,1465.4 L-150.2,1458.4 L-137.7,1444.9 L-127.9,1441.9 L-118.9,1443.4 L-118.9,1419.9 L-110.3,1405.8 L-104.4,1379.3 L-104.4,1367.8 L-108.9,1357.6 L-110.5,1381.6 L-115.0,1397.0 L-128.2,1410.1 L-179.9,1450.9 L-191.0,1465.5 L-203.8,1467.0 L-208.2,1462.5 L-199.0,1445.6 L-159.4,1409.9 L-320.9,1321.8 L-376.4,1307.7 L-422.8,1314.1 L-460.0,1340.9 L-533.8,1464.0 L-549.1,1467.0 L-551.2,1463.7 L-550.2,1457.1 L-538.9,1433.9 L-502.8,1377.9 L-389.5,1181.6 L-328.2,1072.8 L-307.8,1029.9 L-271.8,965.8 L-258.6,944.0 L-246.2,931.8 L-244.8,923.5 L-247.6,917.9 L-277.9,909.4 L-289.4,901.7 L-294.5,889.1 L-293.3,876.2 L-282.4,846.4 L-231.4,746.6 L-220.4,678.4 L-214.8,663.1 L-175.9,589.4 L-137.0,485.1 L-129.8,461.5 L-126.0,437.5 L-127.2,414.4 L-135.5,406.6 L-145.7,421.1 L-187.6,498.9 L-243.6,615.1 L-260.4,657.9 L-269.6,690.4 L-273.8,732.2 L-280.4,763.6 L-295.6,797.0 L-315.9,824.4 L-326.6,843.8 L-338.1,903.9 L-351.9,942.0 L-362.5,959.4 L-394.0,1000.8 L-420.9,1044.0 L-422.8,1050.8 L-459.2,1104.2 L-544.1,1249.9 L-580.9,1322.6 L-596.2,1377.8 L-658.0,1460.1 L-663.5,1464.7 L-674.1,1467.0 L-677.0,1464.9 L-675.6,1454.6 L-665.2,1436.6 L-624.4,1381.9 L-615.3,1364.8 L-589.6,1299.4 L-549.6,1222.4 L-474.2,1092.6 L-412.4,993.3 L-380.4,948.9 L-368.6,928.8 L-352.6,886.2 L-337.9,822.5 L-312.2,788.2 L-300.2,763.5 L-294.9,738.6 L-285.6,658.2 L-67.9,203.9 L-36.2,119.5 L-1.0,8.0 Z" fill="#B40000" transform="translate(1760,3)"/>
<path d="M0.0,0.0 L132.2,62.8 L195.6,103.4 L266.0,155.9 L284.2,179.1 L282.6,196.9 L261.1,209.1 L219.9,215.9 L191.0,234.6 L174.5,265.4 L170.4,308.1 L190.4,451.9 L184.2,455.5 L170.6,456.6 L163.9,461.6 L158.1,471.4 L137.8,550.9 L126.7,553.6 L107.1,552.2 L13.5,531.2 L-7.0,528.8 L-19.4,529.8 L-29.9,543.5 L-83.6,637.8 L-114.2,675.8 L-138.8,715.4 L-146.1,724.3 L-153.2,728.4 L-160.1,727.8 L-176.2,713.0 L-219.5,662.8 L-225.5,635.2 L-220.5,600.8 L-204.5,559.2 L-138.9,442.1 L-114.8,402.2 L-94.3,381.7 L-93.6,378.2 L-104.9,368.9 L-126.2,356.4 L-236.6,301.9 L-273.1,281.4 L-280.1,285.8 L-281.4,298.9 L-299.0,355.0 L-305.8,372.2 L-311.4,382.6 L-315.9,386.1 L-335.6,375.8 L-388.9,360.0 L-400.0,352.0 L-403.8,344.5 L-335.8,190.9 L-312.7,153.4 L-282.8,118.9 L-256.7,103.6 L-225.8,95.0 L-156.6,90.5 L-134.8,91.9 L-118.8,95.6 L-108.6,101.8 L-92.4,129.0 L-79.2,140.5 L-62.9,142.6 L-44.3,139.8 L-31.1,130.9 L-25.5,116.9 L-31.0,102.2 L-51.9,72.9 L-53.8,65.3 L-52.1,59.2 L-46.9,54.8 L-38.2,52.3 L-25.5,63.4 L-17.4,63.1 L-10.9,59.8 L-5.9,48.6 L-1.0,3.0 Z" fill="#FEFEFE" transform="translate(1232,2538)"/>
<path d="M0.0,0.0 L163.8,89.4 L210.3,118.1 L237.9,139.7 L246.6,154.2 L227.8,169.0 L215.8,182.8 L212.2,189.2 L211.4,197.6 L221.1,199.8 L212.9,200.0 L203.7,207.1 L191.4,232.6 L185.1,240.9 L147.9,275.4 L136.4,294.9 L133.5,309.1 L135.4,330.0 L152.3,387.7 L146.5,401.4 L136.4,416.3 L38.8,549.8 L-11.1,611.4 L-71.9,702.0 L-106.6,745.9 L-116.5,751.9 L-132.2,741.2 L-144.0,740.0 L-154.3,743.0 L-166.5,755.5 L-190.3,794.4 L-197.8,799.1 L-206.4,798.8 L-226.4,789.6 L-272.9,758.5 L-284.8,739.5 L-289.9,714.5 L-288.2,683.5 L-271.6,616.0 L-256.5,574.5 L-244.0,554.0 L-236.5,534.5 L-237.5,508.2 L-247.2,468.5 L-244.4,424.0 L-229.0,389.9 L-187.7,315.4 L-107.4,181.7 L-73.3,131.1 L-1.0,6.0 Z" fill="#FEFEFE" transform="translate(1341,1271)"/>
<path d="M0.0,0.0 L5.6,0.0 L7.3,11.8 L9.0,117.5 L-1.6,159.0 L-22.9,195.0 L-54.8,225.5 L-167.4,289.9 L-238.8,298.7 L-263.5,307.8 L-286.2,323.1 L-300.4,328.0 L-337.1,335.5 L-377.8,338.3 L-431.9,336.9 L-458.5,329.7 L-483.0,316.6 L-505.4,297.5 L-566.9,224.1 L-586.2,208.6 L-719.5,206.3 L-802.8,208.8 L-820.4,205.9 L-830.3,198.6 L-832.4,187.0 L-820.7,151.3 L-801.8,70.1 L-795.6,47.2 L-789.9,32.2 L-784.5,25.1 L-770.8,25.5 L-750.2,20.0 L-653.6,26.4 L-249.2,54.4 L-234.2,62.3 L-212.5,64.0 L-190.0,61.4 L-148.9,51.9 L-117.2,39.1 L-97.1,33.6 L-62.1,14.9 L-4.0,1.0 Z" fill="#FEFEFE" transform="translate(2192,2979)"/>
<path d="M0.0,0.0 L263.1,0.0 L342.1,20.2 L394.7,60.8 L421.0,121.5 L418.8,323.6 L414.8,324.8 L408.2,335.6 L387.2,356.4 L262.1,464.0 L252.8,480.9 L226.4,480.0 L103.0,462.0 L58.9,467.6 L57.3,465.4 L58.8,460.9 L67.2,447.3 L75.6,426.5 L79.0,397.6 L76.0,362.2 L69.0,340.8 L60.8,324.4 L46.9,310.2 L9.4,292.2 L-4.4,289.0 L-26.9,290.5 L-42.1,285.6 L-60.2,264.8 L-78.6,254.6 L-80.1,245.5 L-76.9,229.0 L-33.4,112.7 L-1.0,9.0 Z" fill="#FEFEFE" transform="translate(1780,3)"/>
<path d="M0.0,0.0 L11.8,8.2 L14.4,16.1 L13.6,41.0 L7.8,66.5 L-35.9,185.4 L-74.8,259.1 L-80.4,274.4 L-91.4,342.6 L-141.6,440.9 L-152.9,472.1 L-153.4,486.2 L-147.2,499.9 L-137.2,505.9 L-106.1,513.2 L-104.0,515.9 L-105.1,525.1 L-126.0,551.9 L-167.5,625.6 L-174.5,641.5 L-173.9,645.4 L-198.2,683.4 L-282.4,829.2 L-295.6,858.5 L-311.6,882.8 L-375.7,995.9 L-392.6,1018.5 L-410.8,1049.3 L-416.6,1061.1 L-397.4,1065.5 L-464.7,1175.9 L-512.9,1266.1 L-522.1,1292.1 L-526.6,1320.2 L-523.8,1345.2 L-515.1,1383.1 L-515.2,1394.5 L-542.4,1454.3 L-558.4,1510.5 L-566.6,1547.5 L-568.2,1578.5 L-563.1,1603.5 L-551.2,1622.5 L-516.9,1645.9 L-493.4,1658.8 L-473.7,1661.9 L-466.5,1656.9 L-445.1,1619.0 L-433.3,1607.0 L-423.0,1604.0 L-411.2,1605.1 L-395.5,1615.2 L-386.2,1610.1 L-372.6,1595.4 L-314.1,1511.4 L-299.7,1494.1 L-289.2,1485.2 L-273.6,1485.9 L-386.8,1654.4 L-419.6,1693.0 L-425.4,1693.0 L-427.5,1689.8 L-426.0,1683.4 L-412.1,1661.1 L-404.9,1640.9 L-406.5,1633.4 L-419.4,1621.9 L-422.4,1622.0 L-427.8,1628.3 L-454.1,1671.2 L-463.9,1678.9 L-473.6,1682.1 L-487.5,1681.9 L-503.1,1675.8 L-556.1,1642.5 L-571.1,1637.1 L-581.9,1639.4 L-588.4,1649.2 L-590.6,1666.8 L-597.2,1688.6 L-601.5,1693.0 L-606.5,1693.0 L-609.6,1688.0 L-610.7,1678.0 L-607.1,1643.0 L-609.1,1626.1 L-615.9,1612.2 L-627.4,1601.4 L-677.0,1574.9 L-690.9,1560.4 L-692.4,1545.7 L-679.0,1528.4 L-677.5,1524.8 L-679.4,1518.5 L-703.8,1500.5 L-743.8,1477.6 L-759.6,1483.0 L-769.6,1482.7 L-773.4,1479.9 L-732.8,1412.7 L-689.8,1352.9 L-667.1,1299.1 L-653.7,1274.9 L-567.5,1134.5 L-544.5,1074.1 L-540.0,1068.2 L-516.6,1054.1 L-456.2,973.8 L-439.9,919.1 L-410.4,859.8 L-409.1,853.2 L-404.0,847.9 L-314.9,692.7 L-283.1,647.4 L-282.4,642.2 L-254.8,598.3 L-222.9,556.1 L-212.1,538.4 L-198.1,499.9 L-186.6,439.8 L-175.9,420.4 L-155.6,393.0 L-140.4,359.6 L-133.8,328.2 L-129.6,286.4 L-121.1,255.5 L-105.9,216.0 L-6.8,10.4 L-1.0,5.0 Z" fill="#FEFEFE" transform="translate(1620,407)"/>
<path d="M0.0,0.0 L178.8,0.0 L231.5,2.6 L265.5,7.9 L280.8,15.8 L269.1,44.2 L259.5,58.2 L250.8,66.4 L239.6,67.0 L207.7,52.4 L188.6,50.1 L181.7,54.1 L174.1,63.7 L161.4,95.2 L149.4,155.0 L144.1,197.6 L144.9,264.3 L149.2,293.0 L163.9,346.6 L177.4,384.6 L186.9,400.2 L190.1,399.8 L188.4,382.1 L159.6,286.8 L155.5,251.1 L154.8,217.4 L163.6,143.0 L172.7,100.7 L182.5,76.6 L187.5,69.5 L197.5,63.1 L213.4,67.6 L236.8,79.2 L246.2,80.6 L296.9,98.6 L403.0,139.8 L444.5,167.9 L467.5,200.8 L472.0,238.4 L458.0,280.6 L451.0,312.7 L451.0,334.6 L458.0,346.2 L484.2,349.8 L509.9,359.4 L531.2,376.9 L531.9,382.7 L521.5,397.5 L491.5,420.2 L470.3,430.7 L452.6,434.2 L431.1,428.8 L359.6,418.8 L297.8,404.8 L243.4,402.0 L116.1,401.8 L64.6,397.8 L30.7,386.3 L0.0,370.0 Z" fill="#FEFEFE" transform="translate(324,3)"/>
<path d="M0.0,0.0 L24.2,13.2 L42.4,18.5 L108.0,17.6 L135.8,21.9 L144.7,26.2 L147.6,24.9 L167.9,33.9 L198.2,55.9 L210.2,61.5 L216.7,61.1 L232.8,67.2 L249.5,68.8 L272.2,75.1 L284.4,75.2 L344.9,86.7 L367.8,97.0 L367.9,104.3 L362.8,114.9 L325.1,160.7 L314.5,181.8 L323.5,209.5 L361.8,292.4 L368.1,318.6 L369.1,332.8 L366.9,344.2 L348.9,356.6 L322.6,368.3 L224.6,393.0 L208.4,398.0 L196.1,405.8 L195.3,414.8 L199.5,449.6 L216.5,522.6 L265.1,593.9 L269.2,607.4 L260.4,607.3 L248.0,603.0 L150.5,530.4 L89.4,488.0 L39.0,459.9 L-29.9,426.2 L-56.4,409.5 L-72.8,393.5 L-79.0,378.2 L-68.8,348.0 L-18.8,262.3 L-7.4,231.0 L-5.0,201.6 L-5.8,167.3 L-17.2,113.5 L-13.3,103.6 L-3.8,90.6 L-1.0,73.4 L-4.8,55.4 L-15.1,38.7 L-16.6,32.1 L-13.9,24.4 L-1.0,5.0 Z" fill="#FEFEFE" transform="translate(1319,2126)"/>
<path d="M0.0,0.0 L9.1,0.2 L12.2,2.5 L0.4,36.8 L-13.5,61.4 L-2.2,73.1 L25.2,88.9 L174.0,151.2 L219.0,174.0 L215.7,190.5 L185.9,279.0 L179.0,307.8 L178.5,327.2 L184.4,337.5 L221.0,343.0 L249.1,364.2 L257.2,366.6 L266.1,364.7 L275.8,358.6 L286.2,348.4 L300.1,326.9 L304.5,304.2 L302.9,260.8 L310.3,237.8 L326.4,202.2 L384.8,93.8 L429.4,17.6 L440.6,1.9 L444.4,1.1 L423.8,46.9 L340.4,206.8 L323.8,246.9 L315.8,276.0 L318.5,306.2 L322.5,312.8 L328.2,313.5 L366.4,292.9 L401.8,283.6 L426.5,282.1 L447.7,287.0 L469.8,300.1 L486.5,314.5 L517.1,349.8 L543.4,387.0 L557.9,395.2 L573.1,391.8 L589.1,376.5 L605.9,349.5 L616.1,327.1 L619.7,309.2 L616.8,295.9 L595.9,275.1 L592.9,266.8 L612.8,226.8 L620.6,221.8 L640.9,232.9 L654.5,221.4 L675.0,193.8 L702.4,150.0 L782.1,15.0 L793.2,0.0 L796.8,0.0 L774.7,46.5 L661.2,252.4 L655.8,256.8 L652.0,256.4 L626.6,242.2 L620.7,243.1 L611.4,254.8 L610.6,262.6 L613.2,270.7 L640.2,299.9 L643.5,308.2 L583.7,413.7 L573.6,438.6 L567.8,460.5 L565.6,495.5 L566.6,518.5 L570.6,532.1 L580.4,549.1 L591.4,559.2 L607.2,568.9 L634.2,577.6 L674.4,585.4 L691.8,582.8 L704.9,573.8 L713.8,558.4 L728.4,499.9 L733.5,495.3 L745.9,495.5 L753.3,490.6 L799.1,366.0 L842.1,281.1 L848.0,252.4 L867.6,192.0 L942.8,2.5 L956.5,0.0 L954.6,14.0 L945.9,42.0 L870.2,236.4 L860.8,287.6 L830.0,344.2 L812.2,383.0 L778.5,473.0 L772.1,494.8 L768.8,517.2 L763.8,524.4 L757.4,526.6 L742.1,519.2 L728.3,581.1 L728.1,604.0 L722.1,619.7 L640.4,775.2 L622.8,814.5 L627.5,817.0 L632.8,824.5 L634.2,844.4 L628.1,899.2 L616.6,951.0 L611.9,954.2 L603.5,952.9 L583.1,990.5 L510.7,1154.6 L489.1,1194.2 L483.1,1224.6 L476.8,1230.4 L468.5,1233.0 L450.0,1229.2 L451.2,1232.8 L465.2,1245.2 L466.5,1255.8 L459.6,1259.9 L430.6,1262.5 L374.6,1345.1 L389.6,1357.9 L391.4,1361.1 L389.3,1369.9 L360.2,1429.1 L339.1,1460.7 L331.4,1467.0 L325.6,1467.0 L324.4,1461.2 L327.8,1449.6 L364.1,1377.4 L367.4,1369.1 L367.2,1362.4 L354.0,1361.5 L339.6,1353.3 L341.8,1355.5 L341.5,1360.2 L336.8,1371.2 L322.4,1375.6 L304.3,1368.8 L258.7,1343.1 L235.6,1325.6 L217.1,1305.0 L215.0,1300.9 L215.9,1294.7 L224.4,1280.2 L220.8,1271.8 L209.9,1260.4 L54.2,1148.0 L31.6,1135.1 L15.9,1131.4 L7.0,1136.8 L-2.6,1181.9 L-32.1,1252.4 L-86.6,1333.0 L72.5,1442.4 L102.8,1467.0 L97.2,1467.0 L56.1,1444.3 L-96.2,1346.8 L-167.4,1443.9 L-180.8,1458.8 L-190.8,1466.4 L-197.2,1466.6 L-192.4,1453.2 L-176.3,1426.2 L-44.5,1234.6 L-21.4,1180.2 L-11.2,1128.9 L1.2,1039.9 L11.6,990.7 L25.9,941.6 L44.0,892.5 L101.6,759.1 L113.3,669.4 L160.3,517.9 L164.1,498.8 L164.9,460.9 L160.0,453.0 L145.4,446.4 L91.5,439.8 L-2.8,422.2 L-53.7,420.5 L-69.2,418.0 L-72.6,415.1 L-79.9,419.2 L-109.0,421.8 L-221.0,418.5 L-273.6,399.0 L-283.9,389.7 L-286.0,378.6 L-283.9,375.5 L-279.6,375.0 L-233.6,394.2 L-200.1,400.2 L-42.6,402.0 L11.8,404.8 L90.9,422.1 L156.6,430.5 L173.4,430.5 L194.9,425.2 L224.1,407.2 L247.0,386.1 L248.4,381.9 L246.6,379.1 L227.8,362.5 L206.9,354.2 L175.5,348.1 L166.3,335.6 L164.9,313.2 L171.4,281.0 L185.6,239.0 L181.3,201.6 L158.4,168.9 L117.0,140.8 L-21.4,87.5 L-49.2,79.4 L-78.2,65.4 L-88.5,63.1 L-93.5,65.0 L-103.5,76.6 L-116.6,107.4 L-124.4,143.3 L-129.9,205.4 L-129.8,251.5 L-126.4,286.8 L-97.6,382.1 L-95.9,399.8 L-99.1,400.2 L-103.4,395.2 L-114.9,368.4 L-128.2,326.1 L-137.1,288.9 L-141.6,253.9 L-142.1,212.9 L-139.1,169.2 L-127.4,104.2 L-116.0,72.5 L-104.0,55.2 L-95.9,51.1 L-87.6,50.1 L-53.0,64.0 L-36.5,65.1 L-27.4,60.1 L-19.6,50.2 L-7.1,20.8 L20.8,32.5 L73.9,64.5 L255.8,189.2 L330.8,244.4 L377.2,282.3 L395.2,302.9 L367.5,312.6 L341.6,328.2 L313.6,350.2 L240.9,420.0 L204.4,442.9 L191.6,448.6 L185.2,448.8 L181.5,521.6 L154.2,601.6 L140.9,628.4 L140.6,635.8 L128.6,676.8 L122.2,734.4 L115.1,774.5 L93.7,830.4 L31.2,966.8 L23.0,1005.6 L11.0,1094.9 L11.6,1096.9 L16.6,1096.8 L36.5,1109.4 L196.6,1227.0 L242.4,1257.8 L258.0,1265.5 L257.4,1272.6 L234.6,1300.5 L282.8,1336.5 L305.1,1349.0 L321.1,1352.9 L325.8,1350.9 L334.9,1340.0 L356.6,1334.9 L407.6,1257.6 L418.3,1247.3 L427.3,1242.5 L425.1,1232.2 L429.8,1220.2 L441.1,1212.8 L459.1,1206.9 L461.9,1198.1 L472.2,1185.1 L482.3,1166.3 L589.4,929.1 L594.1,923.1 L602.5,917.9 L605.2,912.2 L610.0,887.9 L612.4,855.1 L608.2,841.0 L603.8,841.0 L597.9,836.9 L596.4,827.2 L598.6,812.2 L668.0,681.0 L683.9,644.5 L689.6,619.5 L685.2,606.0 L608.9,591.0 L586.4,580.1 L569.9,565.2 L555.1,540.9 L551.7,528.3 L548.8,493.2 L548.7,451.9 L547.1,436.8 L540.6,417.6 L502.5,362.9 L470.5,325.1 L436.9,301.2 L412.0,301.0 Z" fill="#B40000" transform="translate(610,3)"/>
<path d="M0.0,0.0 L211.2,0.0 L266.1,15.1 L291.2,45.2 L286.6,90.4 L225.1,194.6 L204.9,222.4 L191.6,233.9 L180.1,225.6 L169.8,222.6 L162.1,230.8 L146.8,257.3 L143.5,266.1 L144.8,271.8 L167.8,294.6 L170.6,307.8 L166.9,325.9 L156.5,349.0 L139.5,377.0 L126.2,396.8 L116.6,408.4 L110.6,411.9 L76.2,360.6 L45.5,323.5 L19.8,300.1 L-2.3,287.0 L-23.5,282.1 L-57.8,285.4 L-91.4,296.1 L-128.0,317.0 L-131.5,316.0 L-132.9,311.8 L-134.1,265.5 L-126.6,241.8 L-85.4,156.0 L-1.0,1.0 Z" fill="#FFFFFF" transform="translate(1060,3)"/>
<path d="M0.0,0.0 L115.4,0.2 L142.0,2.5 L51.6,224.1 L39.6,282.9 L-2.9,366.0 L-48.7,490.6 L-52.1,494.4 L-68.5,496.1 L-73.6,500.2 L-88.2,558.4 L-97.1,573.8 L-110.2,582.8 L-127.6,585.4 L-182.9,573.4 L-203.2,564.1 L-221.6,549.1 L-231.4,532.1 L-236.4,508.5 L-234.9,460.5 L-229.2,438.6 L-204.5,385.9 L-158.9,308.2 L-163.5,299.3 L-189.9,271.9 L-192.3,263.8 L-191.2,255.6 L-186.8,247.4 L-181.5,242.6 L-175.5,241.4 L-150.2,255.6 L-146.6,256.1 L-141.8,252.4 L-115.5,202.0 L-1.0,1.0 Z" fill="#FFFFFF" transform="translate(1412,3)"/>
<path d="M0.0,0.0 L6.2,5.0 L4.4,10.4 L-46.2,67.6 L-50.0,75.0 L-0.5,187.8 L7.0,221.5 L4.0,240.4 L-4.8,254.4 L-23.0,265.6 L-44.9,274.1 L-122.4,293.8 L-145.4,304.2 L-159.8,317.8 L-165.5,334.2 L-162.5,353.8 L-152.8,396.9 L-143.0,417.8 L-107.8,467.5 L-81.9,496.8 L-70.4,502.8 L-40.6,527.6 L69.9,608.4 L142.2,657.9 L186.6,596.6 L211.8,566.0 L220.8,559.1 L244.5,552.2 L258.2,542.9 L281.2,501.6 L290.5,500.0 L296.6,501.9 L297.4,506.2 L293.9,516.5 L282.1,542.0 L269.4,559.2 L260.3,565.6 L223.2,577.8 L218.2,583.1 L158.0,670.5 L196.5,702.2 L198.5,706.8 L195.2,709.0 L178.2,707.3 L160.9,698.9 L120.9,664.0 L-76.0,516.0 L-120.2,517.2 L-212.6,530.6 L-249.8,550.1 L-271.8,580.9 L-278.6,622.9 L-270.4,676.1 L-232.7,718.2 L-165.6,749.1 L-69.0,768.8 L151.9,784.4 L215.8,790.3 L248.6,794.9 L250.4,798.1 L156.2,795.6 L-230.4,771.7 L-264.0,771.0 L-269.1,774.2 L-284.6,773.5 L-291.0,780.9 L-304.1,820.8 L-317.2,881.2 L-334.1,937.6 L-331.8,947.9 L-321.8,954.1 L-304.1,956.4 L-251.3,953.6 L-128.2,955.8 L-92.4,954.2 L-75.1,965.1 L-10.0,1041.1 L13.7,1061.9 L39.1,1076.1 L66.1,1083.9 L120.7,1085.2 L163.5,1081.8 L180.5,1078.2 L208.5,1069.0 L247.6,1045.5 L303.9,1039.2 L328.8,1031.8 L397.2,999.1 L495.3,944.9 L506.4,941.2 L506.6,944.8 L473.4,968.2 L395.1,1013.8 L326.1,1046.4 L301.8,1053.5 L251.2,1059.0 L217.0,1080.4 L173.9,1093.0 L128.5,1097.2 L68.6,1096.5 L42.1,1110.9 L20.9,1140.6 L4.9,1185.8 L-14.7,1291.6 L-26.5,1337.0 L-29.5,1337.0 L-25.0,1290.5 L1.2,1134.4 L6.6,1082.6 L-14.0,1054.7 L-87.0,969.6 L-190.1,966.4 L-321.2,972.1 L-349.5,970.2 L-354.9,966.4 L-355.5,957.9 L-348.3,942.4 L-336.1,904.0 L-338.4,890.7 L-347.6,880.1 L-363.9,872.1 L-424.6,857.1 L-465.1,843.1 L-470.1,842.0 L-473.4,844.1 L-482.3,856.7 L-522.8,931.1 L-584.5,1017.5 L-591.5,1030.5 L-594.4,1042.2 L-593.1,1052.8 L-587.8,1062.0 L-569.8,1078.2 L-555.8,1095.5 L-545.5,1113.7 L-538.2,1132.6 L-517.0,1266.7 L-500.0,1331.5 L-506.9,1335.9 L-519.2,1308.5 L-529.7,1268.4 L-544.6,1169.6 L-552.4,1134.8 L-567.9,1101.9 L-591.8,1074.1 L-622.5,1050.2 L-649.4,1025.1 L-707.4,960.2 L-714.6,955.0 L-725.6,952.6 L-768.4,931.2 L-793.5,912.9 L-791.4,908.1 L-787.9,906.6 L-746.0,928.2 L-726.4,921.0 L-703.1,898.0 L-676.2,859.2 L-621.2,761.5 L-583.1,699.2 L-587.9,687.2 L-604.3,672.8 L-632.2,655.8 L-671.8,636.2 L-702.9,626.9 L-725.8,627.6 L-740.4,638.5 L-756.9,689.9 L-764.1,704.8 L-772.0,713.0 L-776.8,711.8 L-797.0,696.7 L-847.0,681.5 L-869.5,668.8 L-876.7,668.3 L-886.1,671.9 L-934.0,706.1 L-950.1,709.0 L-950.4,704.4 L-943.6,695.3 L-909.1,663.4 L-889.1,639.6 L-869.9,610.2 L-851.4,575.2 L-796.9,458.6 L-776.8,430.7 L-756.0,410.6 L-736.8,399.5 L-699.4,385.5 L-611.2,381.1 L-587.1,383.7 L-568.2,389.6 L-554.6,398.8 L-539.2,420.8 L-528.0,430.8 L-516.8,430.8 L-506.8,425.2 L-507.9,419.2 L-535.8,386.8 L-539.5,375.2 L-538.2,369.2 L-529.0,355.8 L-505.2,335.5 L-484.1,333.5 L-471.5,260.0 L-455.8,224.6 L-414.7,150.1 L-401.1,113.1 L-397.8,89.9 L-390.9,80.0 L-386.1,80.0 L-382.6,82.8 L-379.4,96.5 L-380.6,117.9 L-384.9,137.1 L-393.8,157.3 L-443.8,243.0 L-454.0,273.2 L-447.6,288.6 L-430.7,304.7 L-403.4,321.6 L-291.4,377.2 L-137.6,490.1 L-122.1,498.4 L-105.8,502.0 L-108.9,490.6 L-146.6,438.2 L-162.6,406.3 L-176.9,343.5 L-180.2,300.8 L-177.8,297.2 L-151.4,287.6 L-40.6,259.9 L-23.6,251.2 L-11.8,240.9 L-7.1,224.4 L-9.1,202.5 L-53.1,99.7 L-61.9,72.6 L-57.8,62.3 L-32.5,33.2 L-102.4,73.4 L-294.8,197.9 L-378.7,255.5 L-435.1,298.0 L-463.9,325.4 L-469.2,360.9 L-475.8,368.8 L-487.3,370.4 L-498.0,359.3 L-502.0,359.4 L-513.0,366.2 L-515.2,372.3 L-513.8,379.9 L-493.0,409.2 L-487.5,423.9 L-492.0,437.4 L-500.4,444.6 L-508.9,448.5 L-518.3,449.0 L-533.0,447.5 L-545.8,443.2 L-558.2,430.9 L-570.6,408.8 L-580.8,402.6 L-596.8,398.9 L-618.6,397.5 L-669.4,400.0 L-701.5,404.5 L-738.4,420.8 L-759.4,441.0 L-780.6,469.1 L-802.8,508.6 L-850.7,621.2 L-865.1,650.2 L-860.1,661.0 L-844.5,669.0 L-791.7,684.8 L-779.8,692.4 L-774.2,688.2 L-767.8,676.2 L-751.8,628.6 L-735.4,612.8 L-711.1,608.9 L-679.0,617.0 L-584.7,665.0 L-564.6,677.0 L-555.6,685.2 L-556.1,688.4 L-567.6,697.4 L-576.5,708.6 L-609.9,765.1 L-662.8,858.0 L-680.8,902.1 L-687.2,938.4 L-682.2,966.8 L-624.8,1033.6 L-617.9,1035.1 L-610.8,1031.7 L-578.8,986.6 L-550.8,953.0 L-498.0,858.1 L-481.4,836.8 L-474.2,834.6 L-451.4,837.1 L-358.9,860.2 L-341.6,857.5 L-328.2,847.5 L-318.8,830.2 L-302.0,766.0 L-296.9,762.6 L-276.6,761.9 L-271.6,758.9 L-291.6,615.1 L-287.5,572.4 L-271.0,541.6 L-242.1,522.9 L-200.9,516.1 L-179.8,503.7 L-178.8,485.6 L-197.9,461.8 L-237.1,432.2 L-315.4,381.1 L-354.5,359.5 L-452.0,312.0 Z" fill="#FFFF00" transform="translate(1694,2231)"/>
<path d="M0.0,0.0 L69.9,36.1 L86.6,47.1 L63.6,119.7 L46.7,192.1 L42.0,223.1 L43.7,248.4 L49.9,279.9 L48.9,308.7 L51.8,355.4 L48.9,368.2 L41.6,376.2 L30.0,379.4 L0.2,378.2 L10.6,384.4 L42.4,392.5 L48.2,396.8 L54.4,415.0 L53.0,440.9 L44.1,458.2 L12.2,478.2 L-5.1,477.8 L-31.0,470.1 L-45.4,474.1 L-60.3,486.7 L-75.6,508.0 L-91.4,538.0 L-110.1,582.6 L-106.9,582.4 L-100.8,575.5 L-65.8,515.1 L-52.7,496.1 L-41.1,484.9 L-30.9,481.4 L-9.1,491.1 L3.8,492.4 L14.9,489.1 L44.7,472.1 L49.8,471.5 L46.0,492.8 L56.0,521.5 L47.9,534.9 L27.6,554.0 L24.1,562.4 L27.3,570.1 L44.2,585.9 L65.9,656.4 L72.2,692.8 L70.8,707.6 L66.1,717.0 L52.4,713.8 L-7.8,685.9 L-54.2,661.1 L-87.9,640.1 L-108.6,622.9 L-116.5,609.4 L-108.6,592.2 L-108.9,584.6 L-115.8,586.2 L-128.9,604.6 L-136.8,608.3 L-147.9,607.4 L-179.8,592.0 L-184.4,569.4 L-176.3,534.3 L-155.4,486.6 L-121.6,426.4 L-92.8,383.4 L-68.9,357.8 L-50.0,349.5 L-14.2,369.8 L-0.6,372.0 L-0.9,369.2 L-7.1,363.6 L-37.6,343.9 L-50.1,332.9 L-56.7,322.1 L-57.5,311.6 L-52.5,301.4 L-45.1,288.6 L-36.8,281.9 L-27.4,266.6 L-23.1,249.0 L-23.9,235.0 L-36.1,226.2 L-64.4,219.6 L-68.6,217.4 L-72.4,209.3 L-65.0,184.6 L-32.0,119.1 L-12.6,72.0 L-7.2,51.6 L-1.0,6.0 Z" fill="#FEFEFE" transform="translate(1558,677)"/>
<path d="M0.0,0.0 L135.9,65.2 L145.1,70.8 L153.5,81.4 L152.6,86.5 L118.1,141.8 L58.9,245.9 L29.7,287.8 L4.6,312.8 L-16.5,320.9 L-56.2,298.2 L-66.8,285.8 L-74.5,281.5 L-83.6,281.0 L-86.9,283.0 L-90.8,291.5 L-100.3,294.8 L-137.4,284.0 L-154.0,283.0 L-169.8,288.6 L-174.6,297.2 L-180.4,318.6 L-184.7,324.8 L-191.6,328.9 L-213.0,331.0 L-223.7,320.2 L-233.1,298.6 L-241.1,266.1 L-247.9,222.9 L-249.5,187.0 L-246.0,158.5 L-237.4,137.4 L-223.6,123.6 L-211.3,106.2 L-212.8,102.6 L-222.4,102.2 L-211.5,102.0 L-202.8,99.1 L-155.3,64.8 L-146.4,60.8 L-140.0,60.6 L-119.0,72.1 L-66.6,88.4 L-47.2,103.1 L-39.1,103.5 L-33.5,97.1 L-26.8,83.1 L-2.0,6.0 Z" fill="#FFFFFF" transform="translate(963,2838)"/>
<path d="M0.0,0.0 L266.2,0.0 L337.6,15.3 L373.9,45.9 L375.0,91.9 L315.9,201.7 L299.6,237.6 L292.2,260.8 L294.9,293.0 L293.5,315.8 L290.1,327.0 L276.2,348.8 L256.7,366.0 L249.1,369.0 L242.9,368.2 L214.1,347.0 L196.5,341.1 L173.4,337.9 L167.6,326.8 L168.4,305.8 L175.6,274.9 L205.8,182.1 L207.5,169.2 L12.0,89.4 L-16.0,75.3 L-28.0,65.9 L-15.2,45.2 L2.0,1.0 Z" fill="#FEFEFE" transform="translate(621,3)"/>
<path d="M0.0,0.0 L91.2,21.8 L114.7,24.9 L117.5,27.1 L119.4,122.5 L121.8,137.0 L125.5,144.4 L132.9,144.8 L124.9,145.0 L114.2,149.9 L103.2,161.2 L95.1,176.7 L89.2,207.4 L86.2,275.4 L81.0,307.8 L77.0,322.2 L70.9,333.1 L62.8,340.2 L52.6,343.6 L7.4,339.1 L-85.1,321.8 L-135.1,317.0 L-146.4,299.4 L-143.6,266.3 L-126.9,217.6 L-56.8,71.4 L-45.5,50.0 L-33.9,51.5 L-27.5,46.8 L-2.0,1.0 Z" fill="#FEFEFE" transform="translate(540,1956)"/>
<path d="M0.0,0.0 L23.9,34.9 L39.2,49.5 L60.6,54.0 L142.4,61.5 L260.2,81.8 L270.6,85.3 L276.9,90.9 L279.0,98.6 L270.6,130.1 L264.0,138.1 L248.9,139.8 L223.0,137.7 L218.6,138.6 L214.7,143.1 L213.4,161.4 L217.4,170.0 L247.5,174.2 L254.0,178.6 L256.0,186.9 L235.9,250.4 L229.8,290.2 L213.8,304.1 L184.2,311.4 L141.2,312.0 L0.0,297.0 Z" fill="#FEFEFE" transform="translate(324,2229)"/>
<path d="M0.0,0.0 L29.4,6.9 L60.8,24.8 L160.4,110.5 L167.1,118.8 L171.2,133.4 L160.5,154.2 L146.1,165.5 L38.1,175.3 L26.2,172.4 L18.4,166.5 L11.1,150.8 L7.7,146.4 L1.5,144.6 L0.8,152.1 L7.0,168.8 L6.0,176.6 L0.0,182.7 L-27.0,189.9 L-46.1,197.8 L-68.4,210.8 L-172.9,290.4 L-188.4,294.9 L-202.9,292.4 L-209.8,285.9 L-214.8,270.9 L-153.1,167.5 L-142.9,144.4 L-146.1,144.6 L-164.1,167.6 L-211.4,243.1 L-228.1,264.1 L-235.6,253.6 L-238.8,241.8 L-240.2,200.2 L-232.1,163.7 L-226.6,109.1 L-221.1,81.1 L-217.2,75.8 L-208.3,76.2 L-195.4,73.2 L-188.8,64.8 L-184.6,49.1 L-178.7,44.7 L-168.6,44.6 L-135.8,57.2 L-124.5,68.2 L-120.5,81.6 L-123.8,97.4 L-141.2,129.3 L-144.8,143.0 L-141.2,143.0 L-136.2,138.9 L-102.4,90.3 L-93.8,83.9 L-85.8,82.6 L-30.9,101.9 L-16.9,116.8 L-3.8,140.4 L3.1,143.0 L4.1,139.9 L-1.0,124.6 L-13.6,102.6 L-20.7,95.2 L-36.6,87.8 L-40.4,81.8 L-39.8,72.2 L-34.8,59.2 L-11.0,18.0 Z" fill="#FEFEFE" transform="translate(965,2377)"/>
<path d="M0.0,0.0 L17.3,7.3 L45.1,38.6 L56.7,40.5 L91.6,39.6 L111.8,47.9 L117.8,48.1 L129.0,57.0 L142.1,75.0 L150.6,94.9 L154.8,114.6 L154.9,133.8 L151.9,151.8 L141.2,179.0 L79.7,250.9 L67.1,288.8 L57.4,305.4 L4.4,377.2 L-23.5,421.9 L-34.2,428.6 L-48.6,429.4 L-66.6,424.1 L-88.4,412.9 L-102.8,401.8 L-109.9,390.8 L-109.8,379.9 L-102.2,369.1 L-83.5,330.4 L-37.2,201.9 L-33.1,180.6 L-32.9,150.6 L-38.1,135.1 L-48.4,124.8 L-49.2,114.1 L-36.0,74.1 L-1.0,1.0 Z" fill="#FEFEFE" transform="translate(1685,271)"/>
<path d="M0.0,0.0 L14.4,1.2 L17.1,4.7 L13.2,20.4 L-11.8,62.8 L-21.8,102.6 L-24.2,118.4 L-19.9,133.2 L-8.6,147.2 L9.5,160.4 L65.8,188.9 L87.9,204.1 L141.4,230.6 L152.6,232.4 L158.9,229.4 L162.2,215.8 L165.2,211.9 L173.9,210.0 L176.2,219.8 L173.9,268.5 L163.3,339.9 L156.4,365.6 L148.5,384.8 L131.6,409.1 L114.8,441.0 L112.8,449.4 L116.2,461.2 L138.2,472.2 L153.6,475.2 L165.6,474.8 L174.2,477.8 L280.2,567.2 L297.1,576.8 L306.8,577.2 L311.2,558.9 L313.6,521.6 L318.6,493.8 L342.1,429.0 L339.9,415.3 L326.8,389.2 L318.4,363.4 L311.9,334.6 L310.2,311.5 L326.3,271.1 L339.4,220.9 L348.6,210.0 L358.1,211.2 L359.2,217.5 L352.3,238.3 L346.1,274.0 L334.1,306.6 L331.4,331.1 L341.9,373.8 L358.7,404.2 L362.6,422.0 L333.4,512.4 L330.4,561.8 L322.7,591.4 L303.5,640.4 L288.3,660.6 L271.6,669.4 L222.5,671.1 L132.9,686.2 L102.0,695.6 L71.5,709.9 L41.4,729.0 L-12.5,771.7 L-43.9,793.1 L-58.6,797.7 L-74.4,798.5 L-82.6,797.5 L-95.8,791.4 L-112.4,769.2 L-125.1,758.6 L-132.4,748.2 L-136.1,718.2 L-136.7,686.6 L-128.1,635.9 L-120.0,560.2 L-116.6,552.2 L-107.8,544.7 L-97.8,542.9 L-87.9,544.3 L-82.9,541.5 L-76.6,462.8 L-70.7,427.1 L-66.5,420.0 L-61.5,420.0 L-58.1,425.6 L-56.4,436.9 L-57.8,476.2 L-51.4,496.6 L-37.1,514.9 L-15.0,531.0 L15.0,545.0 L40.7,550.1 L62.1,546.4 L79.1,533.8 L91.9,512.2 L96.5,492.9 L93.0,475.6 L81.4,460.5 L45.4,437.4 L23.4,426.1 L7.6,425.1 L1.8,422.2 L19.4,420.0 L46.6,421.4 L58.4,424.3 L85.8,437.0 L91.8,436.5 L96.1,432.9 L103.3,417.6 L126.8,381.0 L141.2,346.8 L146.2,326.6 L155.4,264.6 L155.6,260.4 L150.4,254.4 L101.6,225.9 L83.1,230.1 L67.9,249.9 L55.9,285.1 L41.8,374.4 L39.8,400.6 L41.1,414.6 L45.5,417.7 L-0.9,418.6 L-50.3,413.8 L-56.6,418.6 L-64.9,419.0 L-68.2,412.1 L-70.1,398.2 L-68.0,322.7 L-60.5,246.8 L-53.0,216.1 L-48.5,210.0 L-43.5,210.0 L-40.5,214.9 L-39.5,224.8 L-49.5,328.4 L-50.5,354.6 L-46.6,375.1 L-37.9,389.9 L-24.2,398.9 L-5.8,402.1 L10.3,392.1 L23.9,368.9 L35.1,332.4 L57.0,205.8 L51.7,200.2 L25.1,184.8 L3.9,173.2 L-12.6,167.9 L-24.2,168.8 L-31.0,175.9 L-35.7,199.1 L-39.1,205.7 L-43.1,209.0 L-47.9,209.0 L-50.6,201.4 L-49.8,163.6 L-40.0,89.9 L-31.1,60.1 L-12.9,23.0 L0.2,42.8 L19.2,96.2 L44.1,183.5 L74.9,304.5 L94.9,400.5 L104.1,471.5 L102.6,517.5 L90.4,538.5 L83.2,554.8 L81.1,566.4 L84.0,573.4 L92.0,575.6 L106.7,587.8 L119.6,610.2 L125.0,625.9 L124.1,629.0 L117.2,626.4 L104.1,602.8 L90.1,587.9 L51.6,575.8 L37.1,568.6 L29.4,569.9 L20.8,576.3 L-8.0,616.6 L-15.0,624.9 L-23.8,629.0 L-20.1,615.9 L-2.1,585.2 L1.2,569.8 L-2.8,556.4 L-14.1,545.1 L-47.4,531.1 L-57.6,530.9 L-63.6,535.1 L-68.3,550.9 L-77.8,559.6 L-93.7,562.8 L-101.5,561.6 L-105.3,571.0 L-109.8,637.2 L-113.0,658.8 L-117.9,673.8 L-119.5,693.5 L-116.4,734.4 L-107.1,750.1 L-90.4,729.1 L-43.1,653.6 L-32.2,638.4 L-25.1,630.6 L-21.9,630.4 L-32.1,653.5 L-94.2,758.1 L-87.5,772.5 L-80.4,779.1 L-67.1,781.1 L-51.9,776.4 L52.6,696.8 L74.9,683.8 L94.0,675.9 L121.0,668.7 L127.0,662.6 L128.0,654.8 L121.8,638.1 L122.5,630.6 L128.7,632.4 L139.4,652.5 L147.2,658.4 L159.1,661.3 L267.1,651.5 L281.5,640.2 L292.2,618.8 L286.1,606.9 L271.4,589.6 L216.0,539.0 L168.1,501.9 L152.2,492.9 L126.0,486.0 Z" fill="#B40000" transform="translate(844,1891)"/>
<path d="M0.0,0.0 L5.0,3.1 L14.6,22.1 L39.3,81.0 L52.7,106.8 L69.9,151.9 L78.4,156.5 L79.8,161.5 L91.4,163.9 L92.6,166.1 L74.1,202.9 L69.1,204.8 L58.6,202.6 L55.2,205.4 L-27.0,372.4 L-52.8,418.8 L-72.2,445.9 L-85.5,453.8 L-98.1,433.7 L-106.8,425.6 L-107.9,410.9 L-109.0,276.6 L-105.0,223.9 L-97.0,178.3 L-85.0,139.8 L-69.0,108.2 L-41.1,57.6 L-3.0,1.0 Z" fill="#FEFEFE" transform="translate(433,1789)"/>
<path d="M0.0,0.0 L13.8,1.2 L18.6,3.9 L22.7,8.6 L33.8,37.1 L38.0,42.4 L172.5,74.0 L175.3,67.2 L180.2,33.1 L186.1,14.2 L194.5,2.4 L205.4,0.0 L208.5,3.1 L209.0,9.2 L198.6,49.8 L196.2,75.9 L195.0,149.0 L191.1,199.0 L187.1,209.0 L181.9,209.0 L178.1,204.1 L175.1,179.4 L174.5,106.2 L166.3,97.5 L150.9,89.5 L128.4,82.2 L98.6,75.8 L74.8,73.9 L56.8,76.6 L44.6,84.0 L26.0,115.9 L21.9,117.8 L13.5,115.2 L10.1,116.5 L-92.2,327.2 L-107.2,360.1 L-114.1,377.2 L-112.9,378.8 L-3.9,389.4 L92.2,407.1 L105.8,407.9 L116.9,404.8 L125.8,397.9 L132.4,387.2 L136.6,372.8 L142.1,340.4 L145.2,272.4 L151.1,241.7 L159.2,226.2 L170.2,214.9 L175.6,211.6 L186.1,210.0 L189.8,210.9 L192.1,215.6 L189.1,222.8 L177.7,234.6 L168.5,249.4 L163.8,278.1 L155.2,387.6 L146.4,412.2 L138.4,420.8 L130.4,435.8 L121.1,472.6 L120.6,484.5 L123.0,486.8 L116.2,497.5 L120.4,506.7 L114.9,514.1 L89.1,579.6 L83.0,620.9 L83.9,628.4 L86.8,629.9 L84.9,630.0 L80.9,642.0 L69.2,703.0 L69.5,719.1 L71.9,719.5 L74.1,714.4 L75.4,719.4 L64.4,729.5 L51.4,733.2 L23.8,733.7 L4.8,731.3 L0.5,750.2 L-17.5,768.4 L-72.6,834.6 L-77.3,837.7 L-93.2,839.0 L-93.0,833.1 L-86.0,821.2 L-21.0,741.8 L-23.2,737.6 L-31.9,733.3 L-32.1,729.7 L-35.1,729.8 L-36.0,722.9 L-33.4,715.8 L-17.1,713.3 L48.9,715.1 L56.5,705.9 L61.6,686.5 L49.4,676.9 L22.8,668.6 L-18.2,661.8 L-143.7,646.9 L-158.1,643.1 L-158.9,639.9 L-117.4,640.3 L-18.8,650.0 L24.2,649.4 L53.8,642.1 L69.8,628.2 L75.9,588.4 L96.0,524.9 L94.0,516.6 L87.5,512.2 L67.8,510.6 L57.0,506.5 L52.7,496.4 L53.4,483.9 L56.4,478.4 L62.0,475.6 L96.1,478.2 L105.2,474.5 L112.9,459.8 L121.4,427.6 L121.6,425.4 L114.2,422.2 L84.3,419.3 L16.3,405.6 L-91.8,394.1 L-121.1,388.1 L-131.1,379.8 L-143.1,364.2 L-160.0,332.8 L-159.6,326.6 L-156.2,323.4 L-137.1,351.1 L-124.2,343.4 L-105.1,316.8 L-79.8,271.2 L2.4,105.5 L7.1,100.6 L16.1,101.1 L23.0,97.8 L33.5,80.9 L39.2,64.0 L36.1,61.0 L28.8,59.5 L27.4,54.5 L18.8,49.9 L0.0,3.0 Z" fill="#B40000" transform="translate(484,1891)"/>
<path d="M0.0,0.0 L19.5,1.3 L26.1,9.9 L50.5,21.6 L79.0,25.0 L135.2,26.9 L159.4,32.1 L187.2,41.9 L227.0,68.4 L352.1,94.6 L385.5,103.9 L396.7,112.3 L422.4,139.5 L436.1,149.9 L475.2,169.1 L544.6,195.5 L553.8,204.9 L560.2,217.8 L570.4,224.9 L600.9,234.6 L673.9,242.6 L693.4,248.2 L709.5,294.2 L758.8,369.9 L766.4,385.6 L769.9,398.2 L770.9,415.1 L775.1,420.2 L781.9,423.1 L803.6,423.7 L876.5,416.5 L887.5,417.5 L893.0,420.5 L893.0,425.5 L879.7,433.4 L831.3,440.1 L782.0,440.1 L754.6,435.2 L750.9,428.6 L750.9,406.5 L747.6,394.2 L740.2,378.6 L691.8,301.5 L675.2,259.5 L629.0,257.5 L601.1,252.9 L598.9,254.3 L595.8,274.8 L597.5,301.5 L620.2,348.2 L638.5,423.7 L646.5,447.6 L679.3,521.5 L692.1,542.8 L697.2,544.1 L701.5,549.0 L700.5,575.8 L690.9,614.4 L682.9,626.6 L672.9,629.0 L670.1,624.6 L669.9,615.9 L679.6,571.7 L679.1,556.4 L670.4,546.7 L652.6,512.2 L618.2,431.4 L606.2,366.5 L584.0,316.2 L580.0,301.6 L574.9,256.5 L570.1,243.6 L552.0,236.8 L526.1,206.4 L514.2,200.8 L508.1,200.9 L505.9,198.1 L499.4,198.3 L495.9,195.1 L490.1,195.3 L485.4,191.7 L457.6,185.2 L438.2,177.9 L420.8,164.8 L383.1,125.6 L364.7,113.2 L331.8,108.8 L243.2,90.3 L205.0,76.5 L174.1,57.8 L140.8,45.9 L108.1,41.8 L53.4,43.5 L15.2,29.8 L5.0,35.5 L-5.0,57.1 L-4.1,63.7 L6.9,82.2 L10.6,100.2 L7.2,115.8 L-5.4,135.5 L3.9,173.4 L5.9,193.2 L3.2,206.4 L-4.9,209.0 L-11.0,204.1 L-25.6,138.6 L-22.4,126.6 L-7.0,100.2 L-21.7,72.6 L-25.6,57.4 L-21.1,43.4 L0.0,5.0 Z" fill="#B40000" transform="translate(1308,2101)"/>
<path d="M0.0,0.0 L11.9,0.0 L17.6,8.2 L18.4,27.5 L15.6,47.8 L4.0,77.9 L-53.4,176.8 L-74.2,287.6 L-77.8,290.7 L-86.8,292.0 L-92.6,288.8 L-97.0,281.4 L-104.0,279.4 L-115.0,286.2 L-117.4,291.9 L-111.6,306.9 L-97.0,324.2 L-89.9,337.1 L-88.9,349.3 L-92.4,356.2 L-108.6,366.8 L-121.6,369.0 L-136.5,367.8 L-154.1,357.1 L-172.6,328.8 L-179.9,322.4 L-203.4,316.0 L-266.8,317.9 L-288.9,320.8 L-298.6,324.8 L-307.1,325.1 L-310.7,328.4 L-337.1,338.5 L-361.4,361.0 L-386.3,395.7 L-412.6,446.2 L-446.0,524.8 L-459.4,550.6 L-474.1,572.9 L-490.2,591.5 L-522.7,617.8 L-535.1,625.2 L-544.9,629.0 L-552.1,629.0 L-552.4,624.4 L-545.6,615.3 L-511.1,583.4 L-491.1,559.6 L-471.9,530.2 L-453.4,495.2 L-398.9,378.6 L-378.8,350.7 L-358.0,330.6 L-338.8,319.5 L-301.4,305.5 L-213.2,301.1 L-189.1,303.7 L-170.2,309.6 L-156.6,318.8 L-141.2,340.8 L-130.0,350.8 L-118.8,350.8 L-108.8,345.2 L-109.9,339.2 L-137.8,306.8 L-141.5,295.2 L-140.2,289.2 L-131.0,275.8 L-107.2,255.5 L-86.1,253.5 L-79.0,203.6 L-67.9,165.5 L-15.9,73.7 L-2.0,43.0 Z" fill="#B40000" transform="translate(1296,2311)"/>
<path d="M0.0,0.0 L16.9,0.0 L18.6,3.4 L6.8,20.6 L-6.8,34.4 L-15.2,55.5 L-18.8,84.0 L-17.2,119.9 L-10.8,163.1 L-3.1,195.7 L5.8,217.6 L15.9,228.8 L42.7,227.4 L49.0,221.9 L60.2,187.0 L68.9,180.8 L80.4,178.8 L102.1,182.6 L137.4,195.0 L145.4,177.4 L155.2,177.6 L165.1,184.5 L169.2,190.7 L168.1,206.1 L164.2,212.2 L148.1,226.1 L-1.7,321.2 L-20.6,335.8 L-60.2,373.8 L-96.4,415.9 L-179.1,528.2 L-199.3,564.0 L-217.4,616.4 L-221.8,623.6 L-226.5,627.4 L-231.5,627.6 L-234.6,624.8 L-235.7,618.8 L-232.1,597.4 L-223.6,572.1 L-211.1,545.9 L-159.1,466.6 L-99.0,388.5 L-52.1,339.4 L-13.4,306.6 L101.7,231.1 L124.2,212.2 L116.6,206.6 L108.2,205.4 L95.2,198.7 L81.5,197.0 L74.3,202.8 L64.1,234.8 L57.4,242.9 L49.6,247.5 L29.6,250.0 L6.7,247.0 L-8.6,249.0 L-15.1,247.5 L-17.9,243.2 L-39.4,103.8 L-43.9,56.7 L-42.8,44.1 L-39.2,38.9 L-1.0,3.0 Z" fill="#B40000" transform="translate(733,2941)"/>
<path d="M0.0,0.0 L23.8,0.0 L39.9,3.0 L62.0,17.4 L71.7,27.4 L75.2,37.8 L72.1,47.0 L63.5,59.2 L61.4,70.4 L64.2,75.0 L77.4,83.5 L113.0,100.0 L124.9,97.8 L134.6,87.4 L142.2,68.9 L147.8,42.1 L158.6,8.3 L163.9,1.2 L169.1,0.8 L171.4,7.8 L170.8,22.4 L160.8,74.4 L160.5,99.9 L166.5,121.3 L178.8,138.5 L224.7,169.6 L239.4,177.2 L249.2,179.4 L256.8,177.9 L260.7,174.4 L284.5,135.5 L296.7,123.0 L307.0,120.0 L318.8,121.1 L334.5,131.2 L343.8,126.1 L375.4,87.0 L415.9,27.4 L440.8,1.2 L447.2,0.8 L443.5,13.4 L429.5,39.3 L405.2,78.4 L343.4,169.8 L310.4,209.0 L304.6,209.0 L302.5,205.8 L304.0,199.4 L317.9,177.1 L325.1,156.9 L323.5,149.4 L310.6,137.9 L307.6,138.0 L302.2,144.3 L275.9,187.2 L266.1,194.9 L256.4,198.1 L242.5,197.9 L226.9,191.8 L173.9,158.5 L158.9,153.1 L148.1,155.4 L141.6,165.2 L139.4,182.8 L132.8,204.6 L128.5,209.0 L123.5,209.0 L120.4,204.0 L119.3,194.0 L122.9,159.0 L119.9,141.4 L111.1,126.3 L96.6,113.6 L42.2,83.5 L36.4,74.3 L36.6,61.4 L42.2,51.9 L55.0,38.9 L0.0,2.0 Z" fill="#B40000" transform="translate(890,1891)"/>
<path d="M0.0,0.0 L48.5,25.4 L64.6,40.0 L61.6,60.2 L38.8,132.2 L34.2,184.9 L29.8,203.2 L21.9,204.3 L8.8,197.9 L-9.6,184.1 L-33.4,162.9 L-47.2,139.2 L-51.1,113.2 L-45.0,84.9 L-5.0,8.0 Z" fill="#FFFFFF" transform="translate(1121,2265)"/>
<path d="M0.0,0.0 L62.5,31.9 L77.1,49.6 L81.2,72.2 L74.9,99.8 L58.1,132.2 L43.6,155.1 L31.4,168.4 L21.4,172.0 L-1.5,158.3 L-23.5,155.1 L-38.6,149.6 L-46.4,145.4 L-51.1,139.7 L-52.7,132.6 L-51.2,124.0 L-41.8,104.4 L-8.5,54.0 L-1.0,7.0 Z" fill="#FFFFFF" transform="translate(1010,2208)"/>
<path d="M0.0,0.0 L12.2,0.5 L15.0,5.0 L27.8,9.8 L93.1,23.8 L111.9,31.8 L127.1,42.9 L145.2,66.8 L153.4,81.8 L155.0,91.6 L151.8,106.8 L179.2,123.2 L192.2,135.2 L197.8,145.4 L202.2,159.1 L208.2,197.5 L208.9,213.2 L207.8,223.8 L204.9,229.0 L200.1,229.0 L193.2,216.8 L186.4,164.5 L177.8,147.3 L149.4,129.1 L138.4,127.2 L125.2,130.6 L115.9,126.2 L114.0,119.1 L115.4,112.2 L127.8,99.1 L133.3,89.4 L129.4,74.8 L119.6,62.0 L103.9,50.0 L87.3,41.9 L39.5,29.4 L13.1,25.4 L5.8,25.6 L-5.6,34.6 L-113.2,151.2 L-156.8,193.6 L-175.8,208.4 L-191.4,216.5 L-203.6,216.1 L-211.6,211.1 L-225.9,193.6 L-237.6,190.8 L-247.6,195.0 L-258.2,203.5 L-273.2,227.5 L-282.5,229.0 L-285.6,226.9 L-285.9,216.2 L-279.8,200.2 L-271.5,187.9 L-260.1,179.5 L-243.2,175.6 L-217.8,176.4 L-210.8,179.4 L-202.0,192.0 L-195.9,195.1 L-179.6,186.1 L-125.1,135.0 L-51.0,53.6 L-1.0,3.0 Z" fill="#B40000" transform="translate(1832,1451)"/>
<path d="M0.0,0.0 L14.4,1.2 L17.1,4.7 L16.7,11.1 L-14.2,69.2 L-24.2,118.4 L-19.9,133.2 L-8.6,147.2 L9.5,160.4 L65.8,188.9 L87.9,204.1 L141.1,233.1 L157.4,244.0 L157.6,249.4 L156.0,252.9 L152.2,252.8 L99.4,225.1 L82.0,229.8 L67.5,249.8 L55.9,285.1 L41.8,374.4 L39.8,400.6 L41.1,414.6 L45.5,417.7 L-0.9,418.6 L-50.3,413.8 L-56.6,418.6 L-64.9,419.0 L-68.2,412.1 L-70.1,398.2 L-68.0,322.7 L-60.5,246.8 L-53.0,216.1 L-48.5,210.0 L-43.5,210.0 L-40.5,214.9 L-39.5,224.8 L-49.5,328.4 L-50.5,354.6 L-46.6,375.1 L-37.9,389.9 L-24.2,398.9 L-5.8,402.1 L10.3,392.1 L23.9,368.9 L35.1,332.4 L57.0,205.8 L51.7,200.2 L25.1,184.8 L3.9,173.2 L-12.6,167.9 L-24.2,168.8 L-31.0,175.9 L-33.0,189.1 L-39.1,205.7 L-43.1,209.0 L-47.9,209.0 L-50.6,201.4 L-49.8,163.6 L-37.2,76.8 L-25.8,49.4 L0.0,2.0 Z" fill="#00B400" transform="translate(844,1891)"/>
<path d="M0.0,0.0 L15.6,0.0 L32.4,6.4 L146.2,63.8 L187.8,76.5 L222.4,76.5 L250.1,63.8 L301.3,6.4 L311.0,0.0 L317.0,0.0 L319.8,2.6 L319.2,7.7 L308.5,25.6 L258.0,84.8 L240.2,109.1 L238.5,115.9 L243.5,122.8 L243.5,136.5 L203.0,202.2 L196.2,207.9 L185.6,209.0 L184.4,203.9 L187.8,193.8 L224.8,128.8 L216.6,126.2 L213.4,117.1 L173.1,92.7 L0.0,1.0 Z" fill="#B40000" transform="translate(501,1681)"/>
<path d="M0.0,0.0 L4.9,1.8 L6.0,7.0 L5.4,14.7 L0.4,23.9 L-119.0,127.8 L-148.8,157.6 L-157.2,170.9 L-170.5,172.9 L-203.1,166.5 L-215.9,170.8 L-228.3,182.2 L-240.2,201.0 L-282.8,289.8 L-292.2,301.6 L-299.8,304.0 L-298.5,293.9 L-250.6,193.8 L-247.2,176.3 L-250.2,163.9 L-259.6,156.6 L-319.0,151.0 L-372.8,164.1 L-372.9,161.1 L-367.1,152.9 L-348.0,142.4 L-314.6,138.4 L-188.6,156.1 L-162.6,157.2 L-153.9,141.0 L-19.8,25.9 L-4.0,9.0 Z" fill="#00B400" transform="translate(2195,326)"/>
<path d="M0.0,0.0 L26.9,1.2 L61.0,19.1 L78.7,24.3 L83.1,34.2 L87.8,70.0 L94.8,80.2 L101.4,82.8 L131.8,80.9 L165.1,72.9 L247.8,38.2 L285.6,27.4 L321.4,22.8 L325.8,24.4 L328.0,31.6 L314.3,39.6 L255.4,53.1 L221.9,71.3 L153.8,94.4 L118.3,101.4 L94.5,102.4 L83.3,99.4 L75.9,93.2 L70.9,80.2 L65.9,50.3 L60.0,40.1 L41.6,30.9 L0.0,3.0 Z" fill="#B40000" transform="translate(1873,2941)"/>
<path d="M0.0,0.0 L13.8,0.0 L27.3,5.9 L116.4,59.4 L147.8,71.2 L172.8,71.2 L191.4,59.4 L214.2,17.8 L230.6,0.0 L236.4,0.0 L237.7,5.8 L227.0,34.5 L186.9,108.2 L138.6,187.1 L118.0,209.0 L112.0,209.0 L111.4,202.5 L116.1,189.5 L141.8,144.0 L143.1,118.0 L130.2,92.0 L103.1,66.0 L0.0,1.0 Z" fill="#B40000" transform="translate(702,1471)"/>
<path d="M0.0,0.0 L0.6,14.8 L-7.9,22.6 L-50.4,37.4 L-113.5,53.2 L-134.8,67.0 L-142.4,86.0 L-136.4,110.2 L-100.4,162.4 L-78.8,187.0 L-59.4,196.5 L-51.7,206.4 L-43.2,232.1 L-33.1,281.2 L-26.2,353.6 L-26.8,359.7 L-31.5,363.9 L-39.0,350.0 L-49.6,260.5 L-60.8,219.5 L-71.4,205.6 L-87.7,198.5 L-99.5,187.2 L-136.3,136.6 L-164.5,89.8 L-183.6,69.5 L-188.2,56.8 L-183.8,51.5 L-152.2,50.1 L-79.1,32.6 L-43.6,22.4 L-7.0,8.0 Z" fill="#C8C8C8" transform="translate(2198,2601)"/>
<path d="M0.0,0.0 L6.9,3.8 L8.7,15.1 L8.5,108.5 L11.2,141.0 L17.6,165.0 L27.6,180.5 L52.3,193.9 L60.4,199.8 L68.2,209.9 L66.6,211.7 L60.7,210.6 L36.4,199.5 L21.2,202.4 L5.2,215.3 L-11.6,238.1 L-43.2,295.0 L-59.0,317.4 L-61.0,315.6 L-58.3,306.2 L-22.1,231.8 L-15.7,204.2 L-19.6,181.6 L-33.8,163.9 L-89.1,134.1 L-95.4,129.8 L-95.6,125.1 L-94.0,120.4 L-90.2,120.2 L-36.8,147.2 L-21.1,145.1 L-10.2,130.2 L-4.1,102.6 L-1.0,2.0 Z" fill="#FFFF00" transform="translate(1106,2077)"/>
<path d="M0.0,0.0 L12.5,0.0 L15.1,3.0 L15.4,9.0 L8.8,30.0 L-1.2,48.9 L-12.4,61.1 L-22.2,67.9 L-54.8,77.8 L-80.6,111.5 L-120.0,170.5 L-88.8,194.2 L-79.5,205.2 L-82.8,207.8 L-91.2,208.2 L-108.8,203.4 L-127.1,190.9 L-139.2,178.6 L-142.9,169.4 L-141.6,162.8 L-130.4,151.6 L-78.6,80.1 L-51.6,57.2 L-39.4,52.8 L-20.3,39.8 L-13.5,31.4 L-1.0,7.0 Z" fill="#B40000" transform="translate(1972,2731)"/>
<path d="M0.0,0.0 L12.5,0.0 L15.5,4.9 L16.5,14.8 L6.5,118.4 L5.5,144.6 L9.5,165.1 L18.5,179.9 L32.5,188.9 L80.7,198.4 L99.6,206.8 L85.4,209.0 L55.1,208.6 L5.7,203.8 L-0.6,208.6 L-8.9,209.0 L-12.2,202.1 L-14.1,188.2 L-13.5,139.6 L-10.0,88.2 L0.0,9.0 Z" fill="#B40000" transform="translate(788,2101)"/>
<path d="M0.0,0.0 L15.0,0.0 L18.1,2.2 L18.2,6.6 L0.6,40.9 L-10.3,74.4 L-28.1,105.0 L-67.9,156.4 L-80.2,179.9 L-80.5,183.4 L-76.5,188.6 L-55.5,201.5 L-51.2,205.2 L-51.6,207.8 L-73.9,208.7 L-91.2,203.4 L-97.2,207.9 L-110.4,209.0 L-111.8,203.9 L-101.4,178.6 L-66.5,122.4 L-34.9,79.3 L-24.0,56.8 L-16.1,30.1 L-1.0,5.0 Z" fill="#B40000" transform="translate(965,1681)"/>
<path d="M0.0,0.0 L12.9,3.6 L19.8,9.8 L25.1,19.0 L52.5,81.2 L61.9,113.8 L60.4,119.9 L54.6,119.1 L39.6,100.0 L5.3,27.1 L-0.4,21.0 L-11.2,31.1 L-23.3,47.5 L-58.1,107.3 L-65.9,116.4 L-72.6,121.0 L-78.4,121.0 L-79.4,115.2 L-75.8,103.6 L-54.5,62.9 L-33.2,28.8 L-8.0,1.0 Z" fill="#B40000" transform="translate(433,1769)"/>
<path d="M0.0,0.0 L16.9,0.6 L19.3,1.7 L19.8,5.6 L-61.0,119.6 L-112.8,190.4 L-122.0,194.8 L-128.0,203.4 L-135.2,208.1 L-146.6,209.0 L-149.9,207.0 L-150.1,203.0 L-141.6,189.0 L-92.3,129.2 L0.0,2.0 Z" fill="#B40000" transform="translate(1480,1681)"/>
<path d="M0.0,0.0 L11.2,0.0 L17.8,3.4 L23.0,15.3 L35.3,28.8 L39.2,47.1 L36.9,66.1 L-7.4,106.1 L-74.0,191.2 L-82.9,205.6 L-96.8,209.0 L-99.8,207.0 L-98.6,197.0 L-75.6,161.8 L-27.3,100.6 L-2.9,75.2 L12.6,62.8 L20.1,52.6 L18.8,40.6 L6.1,27.8 L1.0,18.0 Z" fill="#B40000" transform="translate(1540,1681)"/>
<path d="M0.0,0.0 L14.4,0.0 L16.6,4.1 L15.2,12.4 L1.8,41.2 L-20.9,76.1 L-79.9,150.6 L-101.4,200.8 L-105.8,206.2 L-115.5,209.0 L-117.7,204.9 L-113.6,184.2 L-98.5,150.3 L-72.9,112.6 L-29.6,56.6 L-1.0,6.0 Z" fill="#B40000" transform="translate(1432,1891)"/>
<path d="M0.0,0.0 L6.2,4.4 L5.1,10.9 L-20.6,58.9 L-27.8,75.0 L-29.8,86.5 L-26.6,93.4 L-18.4,95.6 L-3.6,107.8 L9.0,130.2 L12.7,139.6 L13.1,149.0 L6.2,146.4 L-6.9,122.8 L-20.9,108.1 L-59.9,96.5 L-75.8,89.0 L-83.8,90.1 L-92.4,96.4 L-126.2,144.9 L-131.2,149.0 L-134.8,149.0 L-131.2,135.5 L-113.8,104.0 L-110.5,88.3 L-114.5,74.9 L-125.8,63.9 L-167.4,41.9 L-172.0,37.5 L-172.0,34.5 L-149.3,41.2 L-96.4,65.0 L-70.8,70.6 L-49.9,67.9 L-33.8,56.8 L-5.0,8.0 Z" fill="#000000" transform="translate(955,2371)"/>
<path d="M0.0,0.0 L13.1,0.0 L16.2,2.4 L17.2,7.3 L6.4,39.6 L-4.5,53.5 L-37.4,82.2 L-47.2,94.6 L-52.7,106.2 L-53.4,116.5 L-50.2,130.6 L-39.0,169.9 L-30.4,185.5 L-37.2,203.0 L-44.7,208.0 L-55.4,209.0 L-60.1,204.9 L-52.9,185.5 L-60.9,166.1 L-68.9,134.1 L-71.5,115.5 L-69.6,98.6 L-62.4,83.2 L-51.1,68.2 L-15.1,36.6 L-1.0,3.0 Z" fill="#B40000" transform="translate(1546,1471)"/>
<path d="M0.0,0.0 L13.8,1.9 L14.1,8.4 L9.2,20.8 L-87.4,188.4 L-97.3,202.1 L-104.9,209.0 L-110.1,209.0 L-112.0,204.7 L-110.5,196.1 L-97.4,165.9 L-3.0,3.0 Z" fill="#B40000" transform="translate(1201,1471)"/>
<path d="M0.0,0.0 L16.2,0.3 L20.0,3.1 L-9.1,79.1 L-38.1,132.0 L-72.6,184.6 L-85.2,199.9 L-94.8,207.8 L-101.2,208.2 L-101.2,201.0 L-94.8,186.0 L-31.7,78.9 L0.0,3.0 Z" fill="#B40000" transform="translate(1078,1471)"/>
<path d="M0.0,0.0 L35.6,8.8 L64.9,18.9 L106.5,39.6 L123.9,54.1 L132.1,52.6 L222.6,82.4 L263.1,92.6 L272.6,102.6 L278.9,116.7 L279.0,131.2 L285.0,140.7 L292.9,172.8 L292.5,194.1 L289.5,194.9 L285.8,189.6 L264.3,120.4 L253.9,103.0 L239.4,101.0 L180.1,83.0 L133.8,65.3 L54.7,29.2 L0.0,12.0 Z" fill="#FEFE00" transform="translate(1630,1064)"/>
<path d="M0.0,0.0 L-1.2,8.1 L-6.9,11.1 L-90.9,24.8 L-119.8,33.2 L-135.0,43.0 L-170.8,78.2 L-254.5,176.4 L-279.2,200.4 L-285.8,203.8 L-290.2,203.0 L-291.8,201.0 L-278.2,182.2 L-223.6,122.4 L-174.5,62.2 L-146.4,33.9 L-133.2,25.1 L-107.4,15.4 L-38.0,3.0 Z" fill="#B40000" transform="translate(2200,995)"/>
<path d="M0.0,0.0 L13.1,0.0 L18.2,4.3 L12.4,43.6 L23.5,124.5 L16.0,144.0 L-6.2,183.5 L-12.4,203.8 L-15.6,207.2 L-25.1,209.0 L-29.8,201.3 L-26.8,183.4 L-18.4,161.9 L-0.2,129.3 L5.0,114.1 L-7.6,45.6 L-5.9,22.9 L-1.0,3.0 Z" fill="#B40000" transform="translate(1081,1681)"/>
<path d="M0.0,0.0 L9.2,0.9 L11.8,6.2 L3.4,43.5 L-27.6,73.6 L-63.7,140.8 L-89.2,181.2 L-95.5,187.9 L-102.2,189.0 L-100.5,182.2 L-82.5,154.9 L-46.8,87.3 L-37.2,72.9 L-5.1,34.9 L0.4,19.9 L-0.4,12.1 L-11.8,16.4 L-31.1,33.5 L-52.2,63.2 L-114.6,167.6 L-130.0,185.4 L-137.1,188.2 L-133.3,177.8 L-104.9,135.6 L-49.6,42.1 L-27.0,17.8 L0.0,2.0 Z" fill="#B40000" transform="translate(1518,1701)"/>
<path d="M0.0,0.0 L14.4,1.2 L17.1,4.7 L16.7,11.1 L1.6,41.9 L-7.9,54.9 L-16.1,75.5 L-34.4,186.5 L-38.6,201.5 L-43.1,209.0 L-47.9,209.0 L-50.6,201.4 L-49.8,163.6 L-37.2,76.8 L-25.8,49.4 L0.0,2.0 Z" fill="#B40000" transform="translate(844,1891)"/>
<path d="M0.0,0.0 L15.0,0.6 L36.0,6.2 L46.0,12.9 L48.0,21.9 L42.6,26.1 L20.8,23.9 L17.7,38.2 L14.6,42.4 L-39.3,46.6 L-51.8,50.5 L-51.7,57.9 L-40.8,86.8 L-38.0,103.9 L-39.9,107.6 L-49.6,112.1 L-64.8,111.9 L-57.0,100.9 L-71.1,62.4 L-72.0,49.4 L-69.2,39.7 L-62.6,33.8 L-56.3,31.8 L-22.0,29.4 L-5.6,24.9 L-3.2,20.8 L-5.3,7.4 L0.0,2.0 Z" fill="#B40000" transform="translate(2153,1566)"/>
<path d="M0.0,0.0 L36.3,4.4 L56.8,15.2 L65.1,25.6 L70.0,37.6 L71.5,57.9 L68.1,71.2 L58.9,80.1 L42.2,85.9 L35.4,85.7 L32.8,88.9 L25.7,89.1 L7.3,96.6 L-22.1,126.3 L-30.4,131.4 L-56.1,135.1 L-81.5,125.6 L-85.1,121.4 L-85.8,114.2 L-83.9,103.6 L-79.0,94.2 L-30.0,28.5 L-14.1,9.9 L-3.8,2.6 L1.5,5.0 L1.4,10.2 L-35.0,48.6 L-52.1,75.8 L-76.4,103.9 L-76.8,112.9 L-71.1,121.3 L-58.0,126.6 L-35.8,124.4 L0.8,93.1 L23.2,82.4 L60.8,69.2 L62.3,44.7 L58.9,33.9 L52.6,24.6 L32.1,9.8 L10.0,6.0 Z" fill="#B40000" transform="translate(706,2786)"/>
<path d="M0.0,0.0 L6.9,0.0 L5.6,4.8 L-41.3,78.6 L-50.9,105.2 L-41.4,100.4 L-21.3,78.9 L32.9,3.1 L35.7,1.1 L42.2,1.9 L23.5,34.5 L-29.0,102.8 L-56.2,129.0 L-69.6,137.8 L-77.4,140.1 L-79.0,136.1 L-76.2,128.4 L-43.6,63.5 L-26.6,37.5 L-1.0,5.0 Z" fill="#B40000" transform="translate(1375,1891)"/>
<path d="M0.0,0.0 L6.2,1.9 L6.4,4.7 L-21.8,48.4 L-27.4,64.9 L-26.8,75.8 L-16.1,89.5 L-2.9,98.2 L24.4,107.4 L40.1,108.9 L62.6,103.4 L81.4,94.5 L89.6,87.6 L101.6,68.2 L110.4,44.1 L124.5,23.1 L147.2,2.3 L155.1,0.0 L155.1,2.4 L117.2,47.2 L105.9,85.4 L99.6,94.9 L89.5,101.5 L62.1,112.4 L31.8,116.5 L9.4,113.1 L0.9,108.2 L-14.5,104.4 L-26.9,93.6 L-32.4,83.9 L-33.1,59.9 L-29.0,42.9 L-17.2,21.5 L0.0,2.0 Z" fill="#B40000" transform="translate(1602,1471)"/>
<path d="M0.0,0.0 L8.8,0.0 L7.1,8.8 L-15.0,41.1 L-48.0,76.4 L-58.7,91.1 L-76.1,129.2 L-98.2,195.9 L-105.3,205.1 L-116.4,209.0 L-116.6,201.3 L-101.2,170.7 L-77.5,99.6 L-56.4,67.4 L-22.4,31.9 L-6.0,9.0 Z" fill="#000000" transform="translate(1889,631)"/>
<path d="M0.0,0.0 L-1.2,11.2 L-9.2,21.4 L-42.5,40.7 L-60.2,41.7 L-83.9,31.8 L-93.9,34.9 L-105.3,45.8 L-118.0,64.4 L-152.3,124.0 L-158.6,131.1 L-162.4,131.9 L-155.2,110.1 L-128.6,57.4 L-113.3,35.9 L-98.4,23.1 L-84.0,19.1 L-57.9,26.7 L-39.6,26.5 L-21.2,16.4 L-1.0,1.0 Z" fill="#000000" transform="translate(1611,1127)"/>
<path d="M0.0,0.0 L18.8,0.6 L26.5,3.4 L42.8,16.8 L51.2,27.2 L72.9,41.3 L124.8,52.6 L133.9,57.8 L146.8,70.4 L154.5,86.5 L152.8,87.8 L148.4,85.4 L111.8,53.1 L54.2,47.4 L26.9,14.6 L14.2,8.0 L2.2,8.4 L-8.2,11.8 L-15.8,20.9 L-24.2,47.5 L-26.4,66.2 L-24.9,86.0 L-20.0,104.8 L-15.9,109.0 L-6.7,109.8 L-3.1,112.8 L-10.6,115.0 L-21.4,113.2 L-29.1,104.5 L-33.9,90.0 L-34.6,55.7 L-23.8,17.4 L-16.4,6.4 L-7.0,1.0 Z" fill="#B40000" transform="translate(2045,1355)"/>
<path d="M0.0,0.0 L15.0,0.0 L17.1,2.8 L15.4,8.2 L-8.6,36.6 L-35.6,56.4 L-35.2,64.0 L-26.2,73.8 L-31.9,84.9 L-26.4,95.6 L-33.4,101.8 L-46.5,100.2 L-50.4,95.9 L-55.1,78.9 L-55.9,66.1 L-51.9,47.6 L-47.2,41.8 L-27.0,28.2 L-1.0,3.0 Z" fill="#B40000" transform="translate(381,2731)"/>
<path d="M0.0,0.0 L166.0,109.7 L197.8,135.0 L192.2,135.0 L149.9,111.2 L-5.0,8.0 Z" fill="#000000" transform="translate(515,1335)"/>
<path d="M0.0,0.0 L15.6,0.0 L31.4,5.9 L91.8,35.2 L211.8,99.0 L215.6,103.8 L215.1,109.5 L174.1,92.1 L0.0,1.0 Z" fill="#000000" transform="translate(501,1681)"/>
<path d="M0.0,0.0 L154.4,82.9 L182.6,102.0 L176.4,102.0 L160.9,96.3 L102.5,67.9 L6.1,15.8 L-4.2,9.1 L-3.0,6.0 Z" fill="#000000" transform="translate(330,1578)"/>
<path d="M0.0,0.0 L13.8,0.0 L49.3,18.4 L146.1,80.3 L164.7,93.9 L173.5,102.1 L172.5,104.9 L139.2,88.1 L0.0,1.0 Z" fill="#000000" transform="translate(702,1471)"/>
<path d="M0.0,0.0 L6.9,3.8 L6.7,10.2 L-11.5,59.8 L-45.6,129.5 L-58.6,148.2 L-66.8,152.0 L-65.5,141.9 L-38.4,89.0 L-13.0,32.0 Z" fill="#000000" transform="translate(1962,478)"/>
<path d="M0.0,0.0 L8.1,0.0 L-2.6,24.2 L-51.7,104.4 L-69.0,126.4 L-72.2,122.7 L-70.9,115.8 L-1.0,1.0 Z" fill="#000000" transform="translate(814,2521)"/>
<path d="M0.0,0.0 L16.5,2.6 L36.4,15.9 L45.2,31.2 L44.0,43.0 L37.9,47.1 L28.2,47.4 L12.9,39.0 L-0.6,21.1 L-2.9,12.9 L-1.0,2.0 Z" fill="#B40000" transform="translate(415,2813)"/>
<path d="M0.0,0.0 L15.0,0.0 L23.6,4.1 L28.8,18.5 L28.9,30.3 L33.6,33.9 L108.1,47.5 L130.8,53.8 L168.0,50.0 L178.0,51.7 L180.0,55.6 L175.5,57.9 L158.7,57.0 L127.1,61.2 L102.1,53.8 L33.6,41.6 L26.2,39.4 L21.6,34.4 L13.4,6.9 L1.0,5.0 Z" fill="#B40000" transform="translate(2021,1471)"/>
<path d="M0.0,0.0 L14.2,1.0 L32.9,13.9 L43.9,28.4 L44.1,40.0 L41.1,43.1 L28.0,46.8 L7.0,46.2 L6.0,44.6 L11.1,40.6 L26.6,38.4 L32.6,34.5 L29.8,26.1 L23.2,17.8 L14.8,10.9 L5.9,7.9 L-12.4,14.8 L-33.8,31.2 L-33.7,34.7 L-23.9,47.2 L-38.2,45.8 L-44.1,33.2 L-39.1,23.1 L-24.6,11.8 L0.0,2.0 Z" fill="#B40000" transform="translate(483,2682)"/>
<path d="M0.0,0.0 L14.4,0.0 L15.9,5.3 L13.3,15.9 L-4.5,53.1 L-18.2,71.6 L-21.0,68.9 L-21.0,58.1 L-17.2,37.9 L-1.0,6.0 Z" fill="#B40000" transform="translate(345,1891)"/>
<path d="M0.0,0.0 L17.1,0.4 L25.0,4.5 L71.8,2.2 L77.2,3.8 L77.5,6.8 L60.2,18.4 L30.9,24.8 L19.2,23.5 L10.5,19.4 L1.0,7.0 Z" fill="#B40000" transform="translate(2025,1681)"/>
<path d="M0.0,0.0 L81.2,42.8 L86.2,47.0 L84.6,52.1 L81.4,53.9 L70.8,50.0 L8.9,17.1 L-3.2,7.2 L-2.0,1.0 Z" fill="#000000" transform="translate(1563,667)"/>
<path d="M0.0,0.0 L61.0,38.2 L67.5,44.1 L67.6,47.0 L53.2,44.8 L31.0,33.5 L0.1,12.3 L-2.9,9.1 L-1.0,6.0 Z" fill="#000000" transform="translate(1491,1003)"/>
<path d="M0.0,0.0 L22.8,0.5 L50.0,5.0 L62.5,9.8 L65.0,15.5 L58.4,18.5 L34.7,15.8 L0.0,1.0 Z" fill="#000000" transform="translate(1547,1051)"/>
<path d="M0.0,0.0 L9.0,1.9 L23.8,13.8 L29.9,21.6 L31.5,29.6 L23.6,30.1 L13.1,25.2 L5.1,17.9 L1.0,10.0 Z" fill="#FFFFFF" transform="translate(420,2820)"/>
<path d="M0.0,0.0 L8.8,0.0 L8.8,7.3 L-5.2,31.2 L-12.4,36.4 L-14.6,34.6 L-15.0,28.1 L-5.0,9.0 Z" fill="#000000" transform="translate(1441,1261)"/>
<path d="M0.0,0.0 L8.1,0.0 L15.0,6.8 L24.4,29.4 L23.5,36.8 L20.5,37.2 L13.8,30.9 L0.0,1.0 Z" fill="#000000" transform="translate(961,2521)"/>
<path d="M0.0,0.0 L11.9,0.4 L22.0,4.5 L38.9,0.0 L44.1,2.4 L34.8,12.4 L23.0,14.0 L15.1,11.9 L0.0,3.0 Z" fill="#B40000" transform="translate(450,2731)"/>
<path d="M0.0,0.0 L11.8,1.1 L59.2,21.8 L48.7,20.8 L10.2,7.2 L-1.4,6.8 L-8.9,19.5 L-17.9,42.8 L-11.0,18.6 L0.0,2.0 Z" fill="#DBDBDB" transform="translate(514,65)"/>
<path d="M0.0,0.0 L10.0,0.0 L11.1,4.7 L-1.6,19.9 L-8.4,22.4 L-11.0,15.4 L-1.0,2.0 Z" fill="#000000" transform="translate(1765,841)"/>
<path d="M0.0,0.0 L-5.8,73.9 L-5.8,48.2 L-1.0,1.0 Z" fill="#D2D2D2" transform="translate(484,159)"/>
<path d="M0.0,0.0 L19.1,11.2 L3.1,10.3 L0.0,3.0 Z" fill="#FEFCFC" transform="translate(547,2375)"/>
<path d="M0.0,0.0 L11.2,11.6 L0.0,10.0 Z" fill="#FFFFFF" transform="translate(324,2800)"/>
<path d="M0.0,0.0 L2.2,3.1 L0.5,9.2 L-10.0,24.6 L-1.0,7.0 Z" fill="#D3D3D3" transform="translate(610,38)"/>
</svg>
