<svg xmlns="http://www.w3.org/2000/svg" viewBox="0 0 2526 3573" width="2526" height="3573">
<rect x="0" y="0" width="2526" height="3573" fill="#f0f0f0"/>
<polygon points="4,1785 4,1689 4,1593 4,1497 4,1401 4,1305 4,1209 4,1113 4,1017 4,921 4,825 4,729 4,633 4,537 4,441 4,345 4,249 4,153 4,57 47,4 143,4 239,4 318,21 318,117 318,213 318,309 318,405 318,501 318,597 318,693 318,789 318,885 318,981 318,1077 318,1173 318,1269 318,1365 318,1461 318,1557 318,1653 318,1749 318,1845 318,1941 318,2037 318,2133 318,2229 318,2325 318,2421 318,2517 318,2613 318,2709 318,2805 318,2901 318,2997 318,3093 318,3189 318,3285 318,3381 318,3477 313,3568 217,3568 121,3568 25,3568 4,3493 4,3397 4,3301 4,3205 4,3109 4,3013 4,2917 4,2821 4,2725 4,2629 4,2533 4,2437 4,2341 4,2245 4,2149 4,2053 4,1957 4,1861" fill="hsl(0, 50%, 70%)" fill-opacity="0.6" stroke="#333" stroke-width="1" data-region="0" data-area="1122975" data-cx="161.0" data-cy="1786.0"/>
<text x="161.0" y="1786.0" font-size="10" text-anchor="middle" fill="#333">0</text>
<polygon points="325,173 325,156 325,139 325,122 325,105 325,88 325,71 325,54 325,37 325,20 326,4 343,4 360,4 377,4 394,4 411,4 428,4 445,4 462,4 479,4 496,4 513,4 492,69 488,78 501,58 535,4 481,99 481,102 551,4 524,51 528,52 533,53 537,55 590,4 472,135 607,4 552,63 599,25 595,35 591,45 567,69 579,63 469,154 467,171 465,187 465,204 464,221 464,238 464,253 467,271 468,283 500,393 498,389 477,319 493,375 501,404 490,367 479,330 493,404 476,405 459,405 442,405 425,404 409,402 392,400 377,395 361,390 347,382 332,375 325,362 325,345 325,328 325,311 325,294 325,277 325,260 325,243 325,226 325,209 325,192 325,175" fill="hsl(37, 50%, 70%)" fill-opacity="0.6" stroke="#333" stroke-width="1" data-region="1" data-area="66538" data-cx="415.6" data-cy="185.0"/>
<text x="415.6" y="185.0" font-size="10" text-anchor="middle" fill="#333">1</text>
<polygon points="737,132 723,126 704,119 690,113 671,106 652,99 634,92 620,86 601,79 597,71 605,56 612,41 618,26 624,11 634,4 651,4 668,4 685,4 702,4 719,4 736,4 753,4 770,4 787,4 804,4 821,4 838,4 855,4 872,4 889,4 906,4 923,4 940,4 957,4 974,4 991,4 1008,4 1025,4 1042,4 1034,20 1025,37 1016,54 1006,71 997,88 988,105 978,122 969,139 960,156 951,173 941,190 932,207 923,224 913,241 910,257 912,274 914,291 913,308 911,325 905,341 892,354 879,367 864,368 853,358 843,350 830,188 828,342 825,201 822,210 818,223 815,230 796,336 792,336 802,267 796,286 792,296 786,315 782,324 814,162 797,155 780,148 763,142 746,135" fill="hsl(74, 50%, 70%)" fill-opacity="0.6" stroke="#333" stroke-width="1" data-region="2" data-area="75622" data-cx="836.7" data-cy="125.7"/>
<text x="836.7" y="125.7" font-size="10" text-anchor="middle" fill="#333">2</text>
<polygon points="967,178 977,160 986,142 996,124 1006,106 1016,88 1026,70 1035,52 1045,34 1055,16 1068,4 1086,4 1104,4 1122,4 1140,4 1158,4 1176,4 1194,4 1212,4 1230,4 1248,4 1266,4 1284,4 1302,4 1320,4 1338,4 1356,4 1374,4 1392,4 1385,20 1375,38 1365,56 1355,74 1344,92 1334,110 1324,128 1313,146 1303,164 1293,182 1283,200 1272,218 1263,235 1261,238 1229,224 1216,236 1206,254 1237,314 1220,295 1210,286 1204,281 1222,338 1211,356 1200,374 1188,392 1177,410 1167,405 1158,393 1148,378 1137,363 1125,349 1114,334 1102,320 1088,307 1074,296 1058,288 1042,283 1025,282 1007,285 990,289 974,295 960,301 937,315 945,309 930,304 930,286 927,268 927,250 937,232 947,214 957,196" fill="hsl(111, 50%, 70%)" fill-opacity="0.6" stroke="#333" stroke-width="1" data-region="3" data-area="102711" data-cx="1148.3" data-cy="162.9"/>
<text x="1148.3" y="162.9" font-size="10" text-anchor="middle" fill="#333">3</text>
<polygon points="1240,290 1221,274 1224,256 1256,259 1245,250 1233,240 1280,238 1291,219 1302,200 1312,181 1323,162 1334,143 1345,124 1356,104 1367,85 1378,66 1388,49 1399,30 1410,11 1427,4 1446,4 1465,4 1484,4 1503,4 1522,4 1541,4 1549,11 1540,30 1533,47 1526,64 1522,76 1515,93 1508,111 1499,130 1493,146 1486,163 1479,180 1473,197 1466,215 1460,232 1455,249 1454,268 1451,286 1443,302 1432,318 1422,334 1413,350 1407,367 1400,384 1395,402 1388,418 1381,435 1375,452 1369,469 1364,487 1353,494 1336,501 1329,527 1325,545 1322,556 1318,578 1316,582 1298,590 1280,587 1262,584 1244,580 1227,575 1210,567 1196,555 1185,540 1179,522 1175,505 1175,486 1177,470 1180,450 1184,431 1196,412 1207,393 1219,374 1231,355 1243,336 1254,317 1251,300" fill="hsl(148, 50%, 70%)" fill-opacity="0.6" stroke="#333" stroke-width="1" data-region="4" data-area="99295" data-cx="1347.7" data-cy="296.5"/>
<text x="1347.7" y="296.5" font-size="10" text-anchor="middle" fill="#333">4</text>
<polygon points="705,1884 746,1779 937,1742 975,1664 1021,1593 992,1341 1088,1444 1105,1191 1162,1311 1204,971 1244,829 1289,710 1346,544 1398,456 1460,320 1513,157 1578,4 1438,800 1461,754 1561,475 1636,322 1707,162 1576,1460 1511,1551 1575,1503 1571,1563 1819,1387 2035,1256 1830,1450 2079,1308 2022,1366 1884,1463 1696,1592 1668,1620 1952,1486 1459,1752 1526,1734 1513,1756 2180,1531 2144,1580 2079,1630 2056,1686 1440,1866 1406,1914 1385,1968 1311,1990 1313,2078 1289,2216 1277,2384 1197,2129 1188,2178 1176,2403 1155,2517 1080,2564 840,3167 790,3187 720,3242 876,2724 817,2859 785,2892 496,3551 691,3048 705,2963 708,2888 722,2784 677,2811 325,3386 325,3224 325,3090 325,3001 415,2842 470,2746 561,2595 567,2568 444,2688 577,2494 613,2369 645,2246 660,2130 801,1983 693,1903" fill="hsl(185, 50%, 70%)" fill-opacity="0.6" stroke="#333" stroke-width="1" data-region="5" data-area="883033" data-cx="1007.1" data-cy="1998.5"/>
<text x="1007.1" y="1998.5" font-size="10" text-anchor="middle" fill="#333">5</text>
<polygon points="1711,213 1718,194 1727,176 1734,157 1740,138 1747,119 1754,100 1760,81 1765,61 1771,42 1776,23 1782,4 1803,4 1824,4 1845,4 1866,4 1887,4 1908,4 1929,4 1950,4 1971,4 1992,4 2013,4 2034,4 2055,4 2076,4 2097,4 2118,4 2139,4 2160,4 2181,4 2199,7 2199,28 2199,49 2199,70 2199,91 2199,112 2199,133 2199,154 2199,175 2199,196 2199,217 2199,238 2199,259 2199,280 2199,301 2199,322 2186,337 2166,356 2145,373 2124,390 2103,408 2082,426 2061,445 2040,464 2030,485 2009,481 1988,477 1967,473 1946,469 1925,465 1904,463 1883,461 1862,462 1851,447 1856,433 1857,429 1860,414 1861,393 1860,372 1854,353 1846,334 1835,317 1817,305 1799,297 1779,291 1759,289 1739,292 1728,275 1714,259 1695,253 1702,234 1711,216" fill="hsl(222, 50%, 70%)" fill-opacity="0.6" stroke="#333" stroke-width="1" data-region="6" data-area="183615" data-cx="1976.0" data-cy="212.0"/>
<text x="1976.0" y="212.0" font-size="10" text-anchor="middle" fill="#333">6</text>
<polygon points="2205,1785 2205,1688 2205,1591 2205,1494 2205,1397 2205,1300 2205,1203 2205,1106 2205,1009 2205,912 2205,815 2205,718 2205,621 2205,524 2205,427 2205,330 2205,233 2205,136 2205,39 2267,4 2364,4 2461,4 2521,41 2521,138 2521,235 2521,332 2521,429 2521,526 2521,623 2521,720 2521,817 2521,914 2521,1011 2521,1108 2521,1205 2521,1302 2521,1399 2521,1496 2521,1593 2521,1690 2521,1787 2521,1884 2521,1981 2521,2078 2521,2175 2521,2272 2521,2369 2521,2466 2521,2563 2521,2660 2521,2757 2521,2854 2521,2951 2521,3048 2521,3145 2521,3242 2521,3339 2521,3436 2521,3533 2459,3568 2362,3568 2265,3568 2205,3531 2205,3434 2205,3337 2205,3240 2205,3143 2205,3046 2205,2949 2205,2852 2205,2755 2205,2658 2205,2561 2205,2464 2205,2367 2205,2270 2205,2173 2205,2076 2205,1979 2205,1882" fill="hsl(259, 50%, 70%)" fill-opacity="0.6" stroke="#333" stroke-width="1" data-region="7" data-area="1130105" data-cx="2363.0" data-cy="1786.0"/>
<text x="2363.0" y="1786.0" font-size="10" text-anchor="middle" fill="#333">7</text>
<polygon points="484,272 482,257 480,241 480,225 481,209 482,193 484,178 485,162 488,147 491,132 494,117 498,102 504,88 511,75 523,69 537,75 551,83 566,86 580,88 596,94 612,100 628,107 644,113 660,119 676,125 692,132 708,138 724,144 740,150 756,157 772,163 788,169 804,175 813,185 808,201 802,217 797,233 791,249 785,265 780,281 774,297 769,313 822,357 834,364 842,370 804,353 859,386 856,390 760,338 847,398 841,402 761,350 827,412 814,421 800,428 786,434 770,434 756,429 740,428 725,425 709,424 694,421 679,419 664,414 649,411 634,408 619,405 603,404 588,402 572,402 556,402 541,404 525,404 519,393 514,379 509,364 505,351 499,338 495,324 491,309 488,294 485,279" fill="hsl(296, 50%, 70%)" fill-opacity="0.6" stroke="#333" stroke-width="1" data-region="8" data-area="92413" data-cx="641.7" data-cy="264.0"/>
<text x="641.7" y="264.0" font-size="10" text-anchor="middle" fill="#333">8</text>
<polygon points="1646,483 1649,470 1653,457 1655,444 1655,430 1655,422 1639,394 1644,398 1647,400 1637,375 1644,363 1649,350 1655,338 1661,327 1665,314 1671,302 1677,290 1683,278 1693,275 1705,281 1712,293 1720,305 1732,312 1745,314 1758,311 1771,311 1784,315 1796,321 1808,326 1820,335 1827,346 1832,359 1836,372 1839,385 1839,399 1838,413 1833,426 1829,439 1821,451 1813,462 1804,474 1794,484 1783,494 1772,504 1763,515 1757,527 1756,541 1752,554 1746,566 1739,578 1730,589 1722,601 1713,612 1705,624 1697,633 1688,645 1680,657 1672,671 1664,682 1657,694 1652,703 1640,704 1626,697 1612,690 1598,682 1584,675 1570,667 1571,659 1592,629 1595,624 1593,625 1600,609 1603,600 1610,584 1615,572 1619,560 1624,547 1629,534 1633,522 1637,509 1642,497 1646,484" fill="hsl(333, 50%, 70%)" fill-opacity="0.6" stroke="#333" stroke-width="1" data-region="9" data-area="56501" data-cx="1707.0" data-cy="476.1"/>
<text x="1707.0" y="476.1" font-size="10" text-anchor="middle" fill="#333">9</text>
<polygon points="971,583 951,566 941,546 948,526 961,506 971,486 900,408 910,412 921,415 933,420 944,425 955,430 910,368 974,438 991,453 990,445 940,342 957,330 974,320 991,312 1010,307 1029,304 1048,308 1065,319 1081,331 1095,347 1108,363 1120,380 1132,396 1143,412 1152,430 1158,448 1155,467 1154,487 1154,507 1156,527 1162,545 1172,562 1186,578 1202,589 1218,595 1233,600 1253,604 1297,611 1291,611 1312,616 1303,633 1294,650 1284,667 1276,685 1266,702 1257,719 1247,736 1239,754 1229,771 1220,788 1211,805 1204,823 1185,820 1165,817 1145,813 1125,808 1105,796 1085,785 1068,797 1053,841 1052,833 1040,847 1020,843 1005,830 997,810 990,790 984,770 1034,676 1037,668 1039,661 974,755 983,735 1038,650 1026,630 1007,611 987,595" fill="hsl(10, 50%, 70%)" fill-opacity="0.6" stroke="#333" stroke-width="1" data-region="10" data-area="111770" data-cx="1089.1" data-cy="582.7"/>
<text x="1089.1" y="582.7" font-size="10" text-anchor="middle" fill="#333">10</text>
<polygon points="1883,665 1896,646 1907,627 1918,608 1929,589 1938,570 1947,551 1955,532 1963,513 1971,494 1987,493 2006,498 2025,501 2044,495 2051,476 2070,459 2089,442 2108,425 2127,409 2146,394 2165,378 2184,363 2199,351 2199,370 2199,389 2199,408 2199,427 2199,446 2199,465 2199,484 2199,503 2199,522 2199,541 2199,560 2199,579 2199,598 2199,617 2199,636 2199,655 2199,674 2199,693 2199,712 2199,731 2199,750 2199,769 2199,788 2199,807 2198,825 2179,822 2160,817 2141,807 2122,797 2103,795 2084,800 2065,812 2046,829 2027,833 2008,842 1993,845 1982,828 1963,829 1944,819 1935,808 1882,877 1879,875 1906,834 1910,824 1871,871 1857,864 1823,894 1819,890 1837,867 1799,872 1780,862 1777,849 1791,830 1801,811 1808,792 1812,773 1817,754 1821,735 1831,716 1850,700 1868,683" fill="hsl(47, 50%, 70%)" fill-opacity="0.6" stroke="#333" stroke-width="1" data-region="11" data-area="121766" data-cx="2035.3" data-cy="659.5"/>
<text x="2035.3" y="659.5" font-size="10" text-anchor="middle" fill="#333">11</text>
<polygon points="325,574 325,561 325,548 325,535 325,522 325,509 325,496 325,483 325,470 325,457 325,444 325,431 325,418 325,405 330,401 340,405 353,411 365,415 376,420 388,424 401,425 413,427 426,427 439,428 452,428 465,428 478,428 491,427 504,427 517,427 529,429 539,442 548,455 555,468 556,481 551,494 548,507 550,520 556,533 565,546 574,559 584,572 593,585 599,598 599,611 598,624 595,637 591,650 585,663 580,674 567,676 554,678 541,680 528,683 515,686 502,689 489,693 476,697 463,702 450,707 437,712 424,718 411,724 398,730 385,737 372,743 359,750 346,757 333,763 325,763 325,750 325,737 325,724 325,711 325,698 325,685 325,672 325,659 325,646 325,633 325,620 325,607 325,594 325,581" fill="hsl(84, 50%, 70%)" fill-opacity="0.6" stroke="#333" stroke-width="1" data-region="12" data-area="71575" data-cx="440.3" data-cy="574.0"/>
<text x="440.3" y="574.0" font-size="10" text-anchor="middle" fill="#333">12</text>
<polygon points="735,741 736,721 736,701 739,682 744,663 750,645 757,627 762,608 770,591 777,573 784,555 789,536 792,517 796,498 796,479 793,455 807,449 825,441 842,432 858,420 872,406 890,422 910,429 930,437 950,445 928,530 937,512 943,504 949,494 926,556 968,460 936,574 956,592 976,608 996,624 1015,642 1022,662 1011,682 993,702 973,721 958,741 957,761 970,780 976,800 984,820 992,840 992,860 985,880 976,900 964,920 951,940 937,960 925,980 915,1000 909,1020 903,1040 896,1060 890,1080 870,1074 850,1062 830,1047 821,1027 820,1009 821,987 802,977 782,969 762,962 742,955 722,948 702,941 682,934 662,928 668,911 676,893 683,877 693,858 700,841 708,824 717,805 724,787 731,769 733,749" fill="hsl(121, 50%, 70%)" fill-opacity="0.6" stroke="#333" stroke-width="1" data-region="13" data-area="131828" data-cx="854.6" data-cy="748.4"/>
<text x="854.6" y="748.4" font-size="10" text-anchor="middle" fill="#333">13</text>
<polygon points="1490,709 1490,693 1491,677 1494,662 1501,649 1507,635 1516,621 1522,607 1529,590 1536,575 1543,565 1550,551 1557,537 1563,524 1570,510 1577,496 1584,481 1592,465 1599,451 1605,439 1614,418 1620,410 1631,418 1633,434 1632,447 1628,461 1624,474 1622,482 1622,485 1614,505 1610,517 1608,524 1606,531 1594,559 1596,557 1590,571 1585,584 1559,636 1577,604 1576,608 1568,624 1533,692 1532,708 1532,724 1529,739 1524,754 1515,923 1511,934 1505,939 1503,919 1496,952 1491,961 1511,780 1482,977 1477,986 1471,991 1504,793 1501,799 1498,805 1452,978 1467,905 1444,973 1483,832 1478,843 1462,888 1472,855 1470,859 1430,963 1414,952 1414,942 1421,923 1423,911 1424,896 1427,881 1466,803 1471,793 1434,853 1457,813 1436,845 1450,821 1474,782 1480,769 1484,755 1487,739 1490,724" fill="hsl(158, 50%, 70%)" fill-opacity="0.6" stroke="#333" stroke-width="1" data-region="14" data-area="26462" data-cx="1516.1" data-cy="719.3"/>
<text x="1516.1" y="719.3" font-size="10" text-anchor="middle" fill="#333">14</text>
<polygon points="604,716 598,697 597,678 605,659 611,640 570,524 577,533 613,630 570,492 592,555 554,425 597,562 568,457 573,471 565,425 616,608 615,598 579,425 598,425 616,428 634,431 652,435 670,439 688,442 706,445 724,447 743,449 760,454 772,465 775,483 774,502 770,520 765,537 759,554 754,570 745,591 740,606 734,623 727,641 722,658 718,676 715,694 715,713 714,732 712,750 707,768 701,785 694,802 687,819 679,836 670,852 663,869 655,886 648,903 640,918 632,936 624,952 619,972 616,983 614,996 609,1038 609,1033 604,1074 602,1084 592,1072 576,1054 598,890 559,1035 600,873 600,866 554,1017 601,850 576,921 601,838 548,983 547,974 547,963 553,942 600,812 600,793 600,774 602,755 606,736 604,717" fill="hsl(195, 50%, 70%)" fill-opacity="0.6" stroke="#333" stroke-width="1" data-region="15" data-area="70585" data-cx="651.2" data-cy="673.8"/>
<text x="651.2" y="673.8" font-size="10" text-anchor="middle" fill="#333">15</text>
<polygon points="1713,650 1721,640 1728,631 1735,621 1743,611 1750,601 1758,592 1763,581 1769,571 1773,560 1778,550 1778,538 1782,528 1790,520 1798,511 1808,502 1817,494 1827,494 1839,486 1851,481 1863,478 1875,477 1887,478 1899,478 1911,480 1923,482 1935,484 1947,486 1954,490 1949,502 1944,514 1939,526 1934,538 1929,550 1924,562 1918,574 1912,586 1905,598 1898,610 1891,622 1884,634 1876,646 1868,658 1858,670 1846,682 1834,692 1822,702 1812,714 1807,726 1804,738 1801,750 1798,762 1795,774 1792,789 1789,796 1783,811 1776,823 1768,833 1757,846 1746,847 1734,840 1722,834 1710,828 1698,823 1686,818 1674,813 1662,808 1650,803 1643,796 1646,785 1649,774 1653,763 1656,752 1660,741 1665,730 1667,721 1673,711 1680,699 1686,689 1693,680 1700,670 1706,660" fill="hsl(232, 50%, 70%)" fill-opacity="0.6" stroke="#333" stroke-width="1" data-region="16" data-area="51659" data-cx="1792.8" data-cy="652.8"/>
<text x="1792.8" y="652.8" font-size="10" text-anchor="middle" fill="#333">16</text>
<polygon points="1489,872 1494,863 1499,853 1504,844 1508,834 1514,825 1518,815 1524,806 1529,796 1534,787 1539,777 1542,767 1546,757 1550,748 1552,739 1554,727 1554,716 1555,705 1555,694 1557,684 1566,684 1577,690 1588,696 1599,702 1610,707 1621,713 1632,718 1640,728 1637,736 1635,743 1630,756 1629,762 1626,773 1623,783 1620,793 1617,803 1613,816 1610,826 1609,834 1607,845 1604,855 1602,865 1601,876 1598,886 1598,897 1597,908 1598,919 1600,928 1602,935 1607,953 1605,959 1605,970 1604,981 1607,999 1605,997 1607,1013 1607,1024 1607,1035 1607,1046 1608,1057 1597,1056 1586,1054 1575,1050 1564,1045 1553,1039 1542,1032 1531,1025 1520,1018 1509,1011 1530,948 1527,952 1525,954 1525,953 1518,964 1507,981 1512,971 1510,974 1499,993 1537,920 1534,910 1526,902 1516,899 1505,898 1495,895 1486,890 1487,881" fill="hsl(269, 50%, 70%)" fill-opacity="0.6" stroke="#333" stroke-width="1" data-region="17" data-area="31300" data-cx="1566.3" data-cy="872.3"/>
<text x="1566.3" y="872.3" font-size="10" text-anchor="middle" fill="#333">17</text>
<polygon points="325,1109 325,1084 325,1059 325,1034 325,1009 325,984 325,959 325,934 325,909 325,884 325,859 325,834 325,809 327,785 352,772 377,759 402,747 427,735 452,724 477,714 502,707 527,700 552,695 577,691 585,712 589,737 585,762 584,787 584,812 585,837 584,858 534,946 584,872 565,909 580,891 531,984 535,1009 541,1034 556,1059 578,1081 600,1104 598,1128 594,1152 588,1175 580,1198 571,1220 560,1242 547,1264 532,1284 517,1305 502,1325 488,1346 474,1367 459,1387 444,1408 429,1428 414,1451 399,1469 384,1492 370,1511 356,1532 341,1552 326,1574 325,1551 325,1526 325,1501 325,1476 325,1451 325,1426 325,1401 325,1376 325,1351 325,1326 325,1301 325,1276 325,1251 325,1226 325,1201 325,1176 325,1151 325,1126" fill="hsl(306, 50%, 70%)" fill-opacity="0.6" stroke="#333" stroke-width="1" data-region="18" data-area="166471" data-cx="441.4" data-cy="1071.9"/>
<text x="441.4" y="1071.9" font-size="10" text-anchor="middle" fill="#333">18</text>
<polygon points="971,941 977,931 983,921 989,911 994,901 998,891 1002,881 1006,871 1009,861 1016,859 1026,861 1036,862 1046,863 1056,862 1066,855 1069,845 1069,837 1070,825 1077,815 1083,805 1091,806 1101,812 1111,819 1121,823 1131,826 1141,828 1151,831 1161,832 1171,834 1181,836 1191,838 1201,839 1207,846 1217,848 1223,849 1222,859 1221,869 1220,878 1219,888 1218,898 1216,907 1214,917 1206,921 1200,928 1194,936 1191,945 1187,954 1183,963 1179,972 1176,981 1171,989 1167,998 1164,1007 1160,1016 1156,1025 1153,1034 1148,1042 1145,1052 1141,1061 1137,1069 1133,1078 1129,1087 1125,1096 1122,1105 1114,1105 1104,1098 1094,1091 1084,1084 1074,1077 1064,1070 1054,1063 1044,1056 1034,1049 1024,1042 1014,1035 1004,1028 994,1021 984,1014 974,1007 964,1000 954,993 944,986 946,977 953,967 960,957 966,947" fill="hsl(343, 50%, 70%)" fill-opacity="0.6" stroke="#333" stroke-width="1" data-region="19" data-area="47536" data-cx="1091.2" data-cy="946.0"/>
<text x="1091.2" y="946.0" font-size="10" text-anchor="middle" fill="#333">19</text>
<polygon points="1817,973 1823,958 1829,943 1834,928 1840,913 1845,898 1848,883 1858,882 1875,892 1889,895 1903,886 1908,871 1913,856 1920,841 1928,826 1942,837 1957,844 1972,845 1978,850 1989,867 2004,864 2019,854 2034,848 2049,845 2064,835 2079,822 2094,813 2109,811 2124,815 2139,825 2154,832 2169,836 2184,839 2199,842 2199,857 2199,872 2199,887 2199,902 2199,917 2199,932 2199,947 2199,962 2199,977 2199,992 2185,994 2170,995 2155,997 2140,998 2125,1000 2110,1002 2095,1005 2080,1009 2065,1015 2050,1023 2036,1037 2024,1052 2015,1067 2005,1082 1992,1097 1979,1112 1966,1127 1953,1142 1939,1157 1924,1172 1912,1179 1906,1164 1894,1151 1879,1153 1864,1149 1849,1144 1834,1140 1819,1135 1804,1130 1789,1125 1774,1119 1763,1111 1769,1096 1775,1081 1780,1066 1786,1051 1792,1036 1798,1021 1804,1006 1810,991 1816,976" fill="hsl(20, 50%, 70%)" fill-opacity="0.6" stroke="#333" stroke-width="1" data-region="20" data-area="90267" data-cx="1980.0" data-cy="977.9"/>
<text x="1980.0" y="977.9" font-size="10" text-anchor="middle" fill="#333">20</text>
<polygon points="1628,958 1627,949 1627,940 1626,932 1623,923 1620,915 1618,907 1620,899 1620,890 1621,881 1623,873 1625,864 1627,856 1629,848 1632,839 1633,830 1636,822 1640,817 1649,820 1658,824 1667,828 1676,831 1685,835 1694,839 1703,843 1712,847 1721,852 1730,857 1739,862 1748,867 1757,871 1766,874 1775,877 1784,882 1793,888 1802,896 1811,905 1820,914 1819,922 1816,931 1812,940 1809,949 1805,958 1802,967 1798,976 1795,985 1791,994 1788,1003 1784,1012 1781,1021 1777,1030 1774,1039 1770,1048 1766,1057 1763,1066 1759,1075 1756,1084 1752,1093 1749,1102 1742,1104 1733,1099 1724,1094 1715,1089 1706,1084 1697,1080 1688,1076 1679,1073 1670,1070 1661,1067 1652,1065 1643,1063 1634,1062 1631,1055 1628,1047 1628,1038 1628,1029 1628,1020 1628,1011 1628,1002 1627,993 1627,984 1627,977 1627,968 1627,959" fill="hsl(57, 50%, 70%)" fill-opacity="0.6" stroke="#333" stroke-width="1" data-region="21" data-area="38824" data-cx="1707.5" data-cy="958.3"/>
<text x="1707.5" y="958.3" font-size="10" text-anchor="middle" fill="#333">21</text>
<polygon points="678,1135 665,1125 649,1113 638,1103 624,1092 625,1074 628,1057 631,1040 632,1022 635,1005 638,988 642,971 648,955 657,943 675,949 693,955 711,962 729,968 747,974 765,981 808,1044 805,1035 821,1061 825,1064 829,1068 801,994 843,1078 861,1088 879,1096 927,1015 924,1027 920,1040 947,1008 913,1063 909,1074 907,1082 968,1023 980,1031 998,1044 1016,1057 1034,1069 1052,1082 1070,1094 1088,1107 1106,1120 1108,1135 1101,1151 1092,1166 1084,1182 1072,1196 1065,1210 1048,1215 1034,1226 1032,1242 1022,1252 1010,1267 1000,1282 990,1297 982,1313 973,1328 958,1338 940,1341 931,1355 917,1352 901,1343 886,1333 879,1329 869,1278 865,1283 860,1264 856,1293 851,1297 849,1255 835,1246 820,1235 805,1225 790,1215 775,1205 760,1194 746,1184 731,1173 716,1163 701,1152 687,1140" fill="hsl(94, 50%, 70%)" fill-opacity="0.6" stroke="#333" stroke-width="1" data-region="22" data-area="97877" data-cx="865.4" data-cy="1138.5"/>
<text x="865.4" y="1138.5" font-size="10" text-anchor="middle" fill="#333">22</text>
<polygon points="1222,1247 1229,1232 1238,1218 1246,1203 1254,1189 1263,1175 1271,1160 1279,1145 1288,1133 1297,1117 1305,1103 1314,1090 1324,1074 1333,1063 1342,1044 1351,1032 1361,1014 1368,1003 1378,990 1389,975 1400,963 1417,974 1434,986 1451,997 1463,1010 1455,1024 1451,1033 1440,1055 1436,1064 1427,1079 1417,1096 1409,1110 1399,1126 1393,1138 1384,1154 1375,1169 1366,1183 1360,1196 1349,1213 1342,1226 1334,1241 1325,1255 1317,1270 1309,1285 1300,1299 1293,1314 1284,1326 1276,1343 1267,1357 1259,1371 1251,1386 1243,1399 1232,1415 1226,1423 1215,1444 1207,1456 1198,1472 1190,1485 1181,1500 1171,1517 1164,1527 1155,1542 1146,1543 1202,1422 1202,1419 1203,1414 1170,1476 1138,1534 1149,1509 1201,1408 1196,1401 1179,1388 1168,1376 1172,1361 1174,1345 1180,1330 1185,1314 1193,1299 1201,1285 1208,1270 1216,1256" fill="hsl(131, 50%, 70%)" fill-opacity="0.6" stroke="#333" stroke-width="1" data-region="23" data-area="47191" data-cx="1300.8" data-cy="1210.9"/>
<text x="1300.8" y="1210.9" font-size="10" text-anchor="middle" fill="#333">23</text>
<polygon points="1948,1171 1960,1159 1971,1147 1981,1135 1991,1123 2002,1111 2012,1099 2022,1087 2029,1075 2037,1063 2045,1051 2057,1039 2069,1031 2081,1026 2093,1023 2105,1020 2117,1018 2129,1016 2141,1014 2153,1013 2165,1012 2177,1011 2189,1010 2199,1011 2199,1023 2199,1035 2199,1047 2199,1059 2199,1071 2199,1083 2199,1095 2199,1107 2199,1119 2199,1131 2199,1143 2199,1155 2199,1167 2199,1179 2199,1191 2199,1203 2199,1215 2199,1227 2199,1239 2199,1251 2199,1263 2199,1275 2199,1287 2199,1299 2193,1305 2172,1284 2167,1279 2180,1304 2177,1304 2154,1278 2143,1282 2132,1286 2122,1291 2111,1295 2099,1295 2090,1288 2083,1278 2076,1268 2069,1258 2062,1249 2053,1241 2043,1235 2031,1235 2020,1238 2006,1241 1997,1241 1985,1242 1975,1243 1962,1246 1951,1248 1939,1251 1928,1253 1925,1241 1923,1229 1920,1217 1918,1205 1926,1193 1938,1182" fill="hsl(168, 50%, 70%)" fill-opacity="0.6" stroke="#333" stroke-width="1" data-region="24" data-area="54524" data-cx="2092.3" data-cy="1158.3"/>
<text x="2092.3" y="1158.3" font-size="10" text-anchor="middle" fill="#333">24</text>
<polygon points="1413,1149 1417,1141 1422,1134 1426,1126 1430,1118 1435,1111 1440,1103 1443,1095 1448,1088 1453,1080 1457,1072 1461,1065 1466,1057 1468,1049 1472,1041 1476,1034 1481,1024 1485,1018 1493,1020 1502,1026 1511,1032 1520,1038 1529,1044 1538,1049 1547,1054 1556,1059 1565,1064 1574,1067 1583,1070 1592,1072 1601,1073 1610,1073 1610,1082 1610,1089 1509,1136 1610,1098 1610,1104 1610,1108 1520,1138 1523,1139 1610,1124 1603,1130 1599,1134 1592,1139 1535,1146 1500,1149 1575,1150 1545,1152 1566,1154 1550,1155 1554,1156 1495,1159 1490,1168 1485,1177 1480,1186 1475,1196 1470,1205 1465,1214 1460,1222 1455,1231 1450,1239 1445,1248 1439,1260 1434,1269 1429,1278 1424,1287 1419,1289 1411,1285 1403,1281 1396,1276 1388,1273 1380,1268 1372,1265 1365,1260 1357,1255 1356,1249 1360,1241 1366,1233 1370,1225 1373,1218 1379,1210 1381,1204 1387,1195 1391,1187 1396,1180 1400,1172 1405,1164 1409,1157" fill="hsl(205, 50%, 70%)" fill-opacity="0.6" stroke="#333" stroke-width="1" data-region="25" data-area="27572" data-cx="1480.0" data-cy="1144.3"/>
<text x="1480.0" y="1144.3" font-size="10" text-anchor="middle" fill="#333">25</text>
<polygon points="1621,1225 1630,1216 1640,1209 1647,1199 1630,1181 1636,1182 1640,1182 1623,1166 1627,1156 1631,1145 1632,1134 1633,1123 1631,1111 1631,1099 1631,1087 1634,1078 1646,1081 1658,1084 1670,1087 1682,1092 1694,1097 1706,1103 1718,1110 1730,1116 1742,1122 1754,1128 1766,1134 1778,1138 1790,1142 1802,1147 1814,1151 1826,1154 1838,1158 1850,1162 1862,1166 1874,1168 1886,1168 1893,1176 1897,1188 1900,1200 1903,1212 1905,1224 1908,1236 1910,1248 1912,1260 1904,1267 1895,1275 1887,1285 1879,1294 1871,1304 1864,1314 1858,1324 1852,1334 1846,1344 1839,1354 1830,1361 1819,1365 1808,1367 1797,1365 1786,1362 1776,1357 1766,1348 1756,1340 1747,1333 1739,1325 1730,1317 1724,1307 1717,1298 1707,1291 1697,1286 1685,1285 1673,1285 1641,1307 1663,1288 1645,1300 1658,1289 1635,1297 1632,1286 1628,1275 1624,1264 1620,1253 1614,1243 1608,1235 1620,1226" fill="hsl(242, 50%, 70%)" fill-opacity="0.6" stroke="#333" stroke-width="1" data-region="26" data-area="52821" data-cx="1757.6" data-cy="1225.1"/>
<text x="1757.6" y="1225.1" font-size="10" text-anchor="middle" fill="#333">26</text>
<polygon points="533,1343 527,1331 536,1318 546,1305 555,1291 564,1278 574,1264 582,1250 588,1235 594,1221 600,1207 605,1192 611,1178 615,1163 617,1148 618,1132 622,1120 635,1130 649,1141 662,1151 675,1161 688,1171 701,1181 715,1190 728,1200 741,1208 754,1218 767,1227 780,1237 794,1245 807,1255 819,1263 833,1272 833,1282 825,1295 825,1311 835,1324 848,1335 861,1344 876,1353 958,1364 968,1367 976,1370 891,1363 947,1374 904,1370 914,1374 969,1387 926,1380 961,1399 955,1414 947,1427 939,1441 932,1455 924,1469 916,1482 909,1496 901,1510 894,1524 887,1538 879,1551 871,1562 855,1553 839,1542 823,1532 807,1522 791,1511 775,1501 759,1491 743,1481 727,1470 711,1460 695,1450 679,1440 663,1429 647,1418 631,1408 615,1397 599,1387 583,1376 567,1365 551,1355 535,1344" fill="hsl(279, 50%, 70%)" fill-opacity="0.6" stroke="#333" stroke-width="1" data-region="27" data-area="87753" data-cx="742.3" data-cy="1351.9"/>
<text x="742.3" y="1351.9" font-size="10" text-anchor="middle" fill="#333">27</text>
<polygon points="1452,1271 1457,1262 1462,1253 1467,1244 1472,1235 1477,1226 1482,1217 1487,1208 1492,1199 1497,1190 1502,1181 1507,1172 1512,1163 1516,1154 1525,1160 1534,1165 1543,1170 1552,1172 1561,1172 1570,1170 1579,1167 1588,1162 1597,1156 1602,1156 1604,1154 1601,1168 1602,1177 1605,1185 1583,1228 1579,1235 1587,1225 1579,1237 1597,1215 1604,1209 1610,1204 1616,1199 1581,1246 1587,1252 1595,1256 1599,1264 1602,1272 1605,1280 1608,1288 1611,1296 1613,1304 1616,1313 1618,1321 1621,1329 1623,1337 1625,1345 1628,1354 1628,1363 1629,1372 1629,1381 1626,1389 1619,1396 1612,1394 1605,1391 1596,1386 1589,1382 1581,1378 1573,1373 1566,1369 1558,1365 1550,1361 1542,1357 1535,1352 1527,1348 1519,1344 1512,1339 1504,1336 1496,1331 1488,1327 1481,1323 1473,1319 1465,1314 1457,1311 1450,1306 1442,1302 1437,1297 1442,1288 1447,1279" fill="hsl(316, 50%, 70%)" fill-opacity="0.6" stroke="#333" stroke-width="1" data-region="28" data-area="26605" data-cx="1544.2" data-cy="1272.8"/>
<text x="1544.2" y="1272.8" font-size="10" text-anchor="middle" fill="#333">28</text>
<polygon points="1256,1424 1260,1416 1264,1408 1269,1401 1273,1393 1277,1385 1282,1378 1287,1370 1290,1362 1295,1355 1300,1347 1304,1340 1308,1332 1313,1324 1318,1315 1321,1309 1326,1299 1330,1293 1335,1286 1339,1278 1345,1276 1353,1280 1361,1284 1369,1288 1376,1293 1384,1297 1392,1301 1400,1305 1408,1309 1404,1317 1398,1328 1395,1336 1391,1346 1390,1354 1391,1363 1398,1372 1407,1375 1416,1377 1413,1386 1408,1395 1402,1404 1397,1413 1392,1422 1387,1431 1382,1440 1377,1449 1372,1458 1367,1467 1362,1476 1356,1485 1351,1494 1346,1503 1341,1512 1336,1521 1331,1530 1325,1539 1320,1548 1315,1557 1310,1565 1305,1574 1300,1583 1294,1578 1291,1569 1285,1560 1276,1552 1267,1546 1258,1541 1249,1536 1240,1532 1231,1528 1222,1524 1213,1519 1204,1513 1202,1508 1208,1499 1213,1491 1217,1484 1222,1476 1226,1468 1231,1461 1235,1453 1240,1445 1246,1438 1252,1431" fill="hsl(353, 50%, 70%)" fill-opacity="0.6" stroke="#333" stroke-width="1" data-region="29" data-area="31160" data-cx="1317.0" data-cy="1428.9"/>
<text x="1317.0" y="1428.9" font-size="10" text-anchor="middle" fill="#333">29</text>
<polygon points="1666,1312 1667,1312 1668,1312 1669,1312 1667,1311 1670,1311 1671,1311 1672,1311 1673,1311 1668,1310 1674,1311 1675,1311 1676,1311 1668,1309 1677,1311 1669,1309 1678,1311 1679,1311 1680,1311 1670,1308 1671,1308 1681,1311 1672,1308 1673,1308 1682,1311 1683,1311 1674,1307 1675,1307 1684,1311 1676,1307 1677,1307 1685,1311 1678,1307 1679,1307 1680,1307 1686,1311 1681,1307 1682,1307 1688,1312 1687,1311 1683,1307 1684,1307 1685,1307 1689,1312 1686,1307 1687,1307 1688,1307 1689,1308 1690,1312 1690,1308 1691,1308 1692,1308 1691,1312 1693,1308 1694,1308 1695,1309 1696,1309 1697,1309 1697,1310 1692,1313 1698,1311 1699,1312 1700,1312 1700,1313 1692,1314 1693,1314 1694,1314 1701,1314 1701,1315 1696,1315 1701,1316 1695,1315 1703,1317 1702,1317 1704,1318 1697,1316 1704,1319 1700,1318 1702,1319 1704,1320 1706,1321 1697,1317 1699,1318 1701,1319 1703,1320 1705,1321 1707,1322 1698,1318 1707,1323 1703,1321 1704,1322 1709,1325 1707,1324 1705,1323 1708,1325 1709,1326 1707,1325 1710,1327 1711,1328 1708,1326 1705,1324 1709,1327 1706,1325 1710,1328 1708,1327 1705,1325" fill="hsl(30, 50%, 70%)" fill-opacity="0.6" stroke="#333" stroke-width="1" data-region="30" data-area="226" data-cx="1689.2" data-cy="1312.7"/>
<text x="1689.2" y="1312.7" font-size="10" text-anchor="middle" fill="#333">30</text>
<polygon points="1384,1469 1390,1460 1395,1451 1400,1442 1405,1433 1410,1424 1406,1357 1408,1358 1409,1346 1412,1359 1413,1336 1417,1360 1418,1326 1421,1361 1423,1362 1426,1320 1426,1396 1428,1392 1430,1388 1438,1326 1434,1382 1436,1378 1438,1374 1451,1333 1459,1338 1467,1341 1474,1346 1482,1350 1490,1354 1498,1358 1506,1362 1513,1367 1521,1371 1529,1375 1527,1383 1522,1392 1517,1401 1513,1410 1508,1419 1503,1428 1498,1437 1494,1446 1489,1455 1484,1464 1479,1473 1474,1482 1470,1491 1465,1500 1460,1509 1455,1518 1451,1527 1446,1536 1441,1545 1436,1554 1431,1563 1427,1572 1422,1580 1417,1590 1412,1600 1407,1609 1403,1616 1398,1625 1393,1635 1385,1635 1376,1630 1367,1626 1358,1622 1349,1617 1340,1613 1331,1608 1322,1603 1313,1597 1314,1591 1320,1581 1325,1572 1331,1562 1336,1553 1341,1544 1346,1535 1352,1526 1357,1517 1362,1508 1367,1499 1372,1490 1378,1481 1383,1472" fill="hsl(67, 50%, 70%)" fill-opacity="0.6" stroke="#333" stroke-width="1" data-region="31" data-area="27541" data-cx="1422.3" data-cy="1480.8"/>
<text x="1422.3" y="1480.8" font-size="10" text-anchor="middle" fill="#333">31</text>
<polygon points="1625,1458 1629,1457 1651,1455 1655,1447 1654,1438 1650,1430 1654,1425 1658,1417 1660,1409 1662,1400 1664,1392 1660,1352 1661,1354 1665,1376 1664,1365 1661,1340 1662,1339 1665,1332 1669,1325 1677,1322 1685,1324 1692,1330 1700,1335 1707,1342 1713,1350 1721,1355 1728,1362 1734,1369 1741,1376 1749,1382 1756,1388 1763,1393 1771,1396 1779,1400 1787,1404 1788,1413 1784,1421 1780,1429 1775,1436 1769,1444 1763,1451 1758,1458 1751,1465 1745,1472 1738,1479 1731,1486 1724,1493 1717,1500 1711,1507 1707,1515 1704,1523 1703,1532 1702,1540 1700,1549 1695,1556 1687,1561 1680,1566 1672,1569 1664,1573 1656,1576 1648,1578 1639,1579 1631,1577 1622,1576 1614,1574 1606,1571 1598,1567 1590,1563 1584,1557 1579,1550 1575,1543 1575,1536 1578,1526 1583,1519 1587,1510 1591,1503 1596,1496 1602,1488 1607,1481 1615,1474 1619,1467 1622,1462 1635,1460" fill="hsl(104, 50%, 70%)" fill-opacity="0.6" stroke="#333" stroke-width="1" data-region="32" data-area="26371" data-cx="1679.9" data-cy="1463.0"/>
<text x="1679.9" y="1463.0" font-size="10" text-anchor="middle" fill="#333">32</text>
<polygon points="354,1572 364,1560 373,1548 381,1535 390,1523 399,1511 407,1498 417,1486 425,1473 434,1461 444,1449 452,1436 461,1424 470,1412 479,1400 487,1387 496,1375 504,1362 514,1350 529,1360 544,1370 559,1380 574,1390 589,1400 604,1410 619,1420 634,1430 649,1439 664,1449 679,1459 694,1469 709,1479 724,1488 739,1498 754,1507 769,1517 784,1526 799,1536 814,1546 829,1556 844,1565 860,1575 860,1587 851,1599 844,1612 837,1625 829,1637 821,1650 813,1663 804,1675 796,1688 786,1700 776,1712 766,1724 755,1736 745,1748 733,1759 724,1771 713,1778 698,1770 683,1762 668,1754 653,1746 638,1738 623,1730 608,1722 593,1714 578,1706 563,1698 548,1690 533,1682 518,1674 503,1666 488,1658 473,1650 458,1642 443,1635 428,1627 413,1619 398,1611 383,1603 368,1595 353,1587 352,1577" fill="hsl(141, 50%, 70%)" fill-opacity="0.6" stroke="#333" stroke-width="1" data-region="33" data-area="113400" data-cx="608.4" data-cy="1571.8"/>
<text x="608.4" y="1571.8" font-size="10" text-anchor="middle" fill="#333">33</text>
<polygon points="2023,1450 2020,1444 2019,1438 2018,1431 2018,1424 2018,1417 2020,1411 2021,1404 2023,1398 2024,1391 2027,1386 2030,1380 2033,1374 2037,1369 2042,1366 2048,1364 2055,1364 2062,1364 2068,1366 2073,1370 2076,1373 2082,1384 2085,1389 2090,1395 2094,1400 2100,1404 2106,1407 2112,1409 2119,1409 2125,1409 2132,1409 2138,1407 2144,1409 2151,1409 2158,1411 2164,1414 2170,1418 2175,1424 2180,1429 2185,1434 2189,1440 2193,1446 2199,1451 2199,1458 2199,1465 2199,1472 2199,1479 2199,1486 2199,1493 2199,1500 2199,1507 2199,1514 2197,1519 2190,1519 2183,1519 2176,1519 2169,1519 2163,1521 2157,1524 2151,1522 2146,1521 2138,1518 2132,1518 2125,1516 2118,1515 2111,1514 2105,1512 2098,1511 2092,1510 2085,1509 2078,1508 2072,1506 2065,1505 2059,1503 2052,1501 2052,1494 2049,1488 2048,1481 2046,1475 2044,1468 2031,1464 2030,1463 2028,1462 2026,1455" fill="hsl(178, 50%, 70%)" fill-opacity="0.6" stroke="#333" stroke-width="1" data-region="34" data-area="19363" data-cx="2107.2" data-cy="1451.6"/>
<text x="2107.2" y="1451.6" font-size="10" text-anchor="middle" fill="#333">34</text>
<polygon points="1372,1709 1382,1690 1392,1671 1403,1651 1413,1632 1423,1613 1433,1594 1443,1576 1454,1555 1464,1536 1472,1522 1482,1503 1493,1482 1505,1459 1516,1438 1526,1419 1531,1411 1543,1388 1560,1392 1482,1550 1485,1547 1491,1540 1499,1533 1508,1523 1547,1463 1546,1466 1546,1468 1540,1480 1588,1407 1539,1487 1534,1498 1532,1503 1592,1418 1474,1603 1480,1620 1485,1638 1490,1655 1484,1672 1472,1687 1462,1703 1451,1718 1440,1734 1429,1750 1417,1765 1406,1781 1394,1796 1383,1811 1371,1827 1360,1843 1346,1856 1334,1871 1321,1891 1314,1899 1303,1916 1290,1937 1281,1950 1271,1965 1259,1985 1251,1996 1240,2013 1230,2025 1216,2012 1198,2008 1180,2008 1309,1826 1188,1986 1194,1975 1317,1811 1207,1950 1323,1800 1221,1924 1226,1913 1331,1785 1239,1889 1248,1874 1254,1863 1261,1851 1267,1841 1347,1755 1358,1736 1368,1717" fill="hsl(215, 50%, 70%)" fill-opacity="0.6" stroke="#333" stroke-width="1" data-region="35" data-area="41206" data-cx="1380.9" data-cy="1735.4"/>
<text x="1380.9" y="1735.4" font-size="10" text-anchor="middle" fill="#333">35</text>
<polygon points="973,1708 982,1694 993,1679 1004,1664 1012,1648 1023,1634 1032,1619 1041,1603 1050,1588 1059,1573 1069,1556 1074,1546 1081,1526 1087,1511 1091,1498 1099,1471 1106,1458 1116,1444 1126,1432 1138,1419 1149,1403 1163,1397 1127,1513 1132,1505 1139,1493 1122,1536 1183,1411 1165,1455 1175,1439 1179,1434 1133,1553 1130,1582 1132,1581 1122,1598 1112,1615 1106,1627 1094,1647 1087,1663 1083,1675 1077,1691 1072,1709 1071,1727 1072,1745 1077,1762 1082,1779 1084,1795 1079,1811 1069,1826 1061,1842 1054,1858 1049,1874 1046,1891 1041,1907 1037,1928 1034,1936 1030,1956 1026,1977 1022,1998 1012,1993 996,1986 980,1978 965,1970 966,1936 960,1945 965,1921 947,1957 949,1904 935,1894 920,1885 905,1876 889,1868 889,1855 899,1839 907,1827 921,1809 929,1796 940,1781 952,1766 957,1750 962,1734 968,1717" fill="hsl(252, 50%, 70%)" fill-opacity="0.6" stroke="#333" stroke-width="1" data-region="36" data-area="53486" data-cx="1031.1" data-cy="1735.7"/>
<text x="1031.1" y="1735.7" font-size="10" text-anchor="middle" fill="#333">36</text>
<polygon points="1413,1969 1436,1932 1455,1894 1479,1857 1507,1823 1534,1787 1567,1759 1581,1720 1561,1686 1578,1650 1610,1653 1649,1665 1683,1638 1716,1605 1748,1571 1777,1540 1807,1507 1839,1477 1881,1485 1921,1496 1944,1567 1950,1582 1964,1583 2001,1593 2019,1630 2022,1673 2044,1707 2055,1708 2132,1615 2082,1702 2093,1697 2116,1674 2194,1596 2199,1636 2199,1680 2199,1724 2199,1768 2199,1812 2199,1856 2199,1900 2199,1944 2199,1988 2199,2032 2199,2076 2199,2120 2199,2164 2199,2208 2199,2252 2199,2296 2199,2340 2199,2384 2199,2428 2199,2472 2195,2512 2154,2519 2111,2522 2073,2473 2060,2455 2046,2435 2022,2401 2015,2389 1979,2340 1936,2337 1894,2330 1863,2305 1827,2283 1787,2270 1747,2255 1717,2222 1680,2197 1639,2188 1597,2181 1555,2173 1517,2155 1479,2135 1438,2125 1396,2124 1353,2121 1333,2092 1348,2052 1373,2017 1403,1982" fill="hsl(289, 50%, 70%)" fill-opacity="0.6" stroke="#333" stroke-width="1" data-region="37" data-area="520492" data-cx="1866.7" data-cy="1972.0"/>
<text x="1866.7" y="1972.0" font-size="10" text-anchor="middle" fill="#333">37</text>
<polygon points="1101,1765 1098,1753 1094,1741 1093,1728 1094,1715 1097,1703 1100,1691 1105,1680 1110,1668 1116,1657 1122,1646 1128,1635 1135,1624 1140,1612 1147,1602 1153,1590 1159,1581 1166,1568 1172,1559 1179,1547 1186,1534 1193,1526 1206,1534 1219,1541 1232,1547 1245,1553 1258,1560 1271,1569 1279,1582 1285,1595 1285,1609 1280,1619 1270,1635 1263,1647 1256,1660 1248,1673 1241,1686 1233,1699 1226,1712 1218,1725 1211,1738 1204,1751 1196,1764 1189,1777 1181,1790 1174,1803 1167,1816 1160,1829 1152,1842 1145,1855 1138,1869 1131,1882 1124,1895 1117,1908 1110,1921 1104,1932 1097,1945 1090,1960 1083,1973 1077,1985 1071,1997 1064,2012 1056,2017 1045,2011 1043,2002 1047,1987 1050,1975 1051,1966 1055,1951 1057,1940 1061,1926 1063,1915 1064,1905 1070,1889 1072,1879 1075,1867 1078,1857 1093,1834 1096,1829 1103,1818 1104,1812 1106,1799 1106,1787 1105,1775" fill="hsl(326, 50%, 70%)" fill-opacity="0.6" stroke="#333" stroke-width="1" data-region="38" data-area="42039" data-cx="1161.4" data-cy="1724.5"/>
<text x="1161.4" y="1724.5" font-size="10" text-anchor="middle" fill="#333">38</text>
<polygon points="325,1800 398,1795 325,1779 325,1768 325,1757 413,1777 325,1733 421,1771 424,1768 462,1789 325,1689 459,1784 457,1781 444,1768 325,1650 325,1632 325,1614 335,1599 353,1606 371,1615 389,1625 407,1634 425,1644 443,1653 461,1663 479,1672 497,1682 515,1692 533,1701 551,1711 569,1720 587,1730 605,1739 623,1749 641,1758 659,1768 677,1777 695,1787 712,1797 723,1812 716,1826 705,1841 696,1856 686,1871 677,1886 669,1902 663,1918 660,1935 657,1952 651,1961 634,1957 617,1954 600,1950 583,1945 567,1942 551,1940 533,1935 517,1920 514,1913 508,1897 499,1877 492,1859 486,1846 479,1832 472,1816 327,1921 333,1911 325,1911 343,1892 346,1883 325,1889 356,1865 359,1857 365,1849 369,1841 373,1834 378,1826 381,1820 325,1821 391,1807 465,1801" fill="hsl(3, 50%, 70%)" fill-opacity="0.6" stroke="#333" stroke-width="1" data-region="39" data-area="72376" data-cx="504.3" data-cy="1788.5"/>
<text x="504.3" y="1788.5" font-size="10" text-anchor="middle" fill="#333">39</text>
<polygon points="1170,1843 1177,1831 1184,1819 1191,1807 1197,1795 1204,1783 1211,1771 1218,1759 1225,1746 1231,1736 1238,1724 1245,1712 1252,1700 1259,1688 1266,1675 1273,1663 1280,1650 1287,1638 1293,1629 1301,1614 1311,1615 1323,1622 1335,1628 1347,1634 1359,1640 1371,1646 1383,1652 1377,1665 1372,1675 1364,1689 1359,1699 1352,1712 1346,1724 1339,1736 1333,1748 1326,1760 1320,1772 1313,1784 1272,1814 1265,1819 1304,1801 1285,1813 1298,1811 1255,1830 1247,1842 1240,1854 1233,1866 1227,1878 1220,1891 1214,1901 1207,1915 1201,1927 1173,2024 1170,2029 1193,1941 1169,2021 1159,2051 1167,2019 1184,1960 1149,2065 1164,2013 1164,2010 1164,2006 1164,2003 1168,1990 1132,2067 1122,2062 1112,2055 1102,2048 1093,2042 1083,2035 1075,2027 1081,2015 1085,2005 1091,1993 1097,1981 1103,1969 1109,1957 1116,1944 1122,1932 1129,1920 1135,1908 1142,1896 1148,1884 1155,1872 1161,1860 1168,1848" fill="hsl(40, 50%, 70%)" fill-opacity="0.6" stroke="#333" stroke-width="1" data-region="40" data-area="38967" data-cx="1227.1" data-cy="1828.8"/>
<text x="1227.1" y="1828.8" font-size="10" text-anchor="middle" fill="#333">40</text>
<polygon points="1414,1853 1419,1847 1423,1840 1427,1834 1429,1832 1433,1825 1439,1814 1443,1807 1449,1796 1459,1777 1449,1797 1460,1776 1449,1798 1459,1779 1470,1759 1469,1762 1475,1752 1484,1740 1492,1731 1497,1727 1503,1722 1509,1719 1477,1771 1517,1714 1476,1774 1482,1766 1472,1781 1518,1717 1467,1789 1517,1721 1494,1754 1515,1727 1498,1751 1460,1802 1513,1734 1510,1739 1510,1740 1457,1809 1456,1813 1450,1823 1447,1829 1444,1836 1439,1843 1436,1850 1432,1856 1427,1863 1423,1870 1418,1876 1413,1883 1409,1890 1403,1898 1399,1903 1392,1914 1390,1915 1383,1926 1379,1932 1373,1941 1369,1946 1366,1950 1367,1947 1356,1964 1352,1968 1348,1972 1342,1979 1335,1986 1329,1993 1323,1998 1325,1991 1328,1984 1330,1979 1339,1963 1334,1968 1340,1959 1348,1947 1352,1941 1357,1934 1358,1932 1368,1919 1357,1932 1385,1897 1377,1906 1377,1905 1389,1890 1395,1882 1398,1877 1400,1873 1407,1864 1411,1858" fill="hsl(77, 50%, 70%)" fill-opacity="0.6" stroke="#333" stroke-width="1" data-region="41" data-area="5293" data-cx="1421.2" data-cy="1852.8"/>
<text x="1421.2" y="1852.8" font-size="10" text-anchor="middle" fill="#333">41</text>
<polygon points="325,2013 325,2001 325,1989 325,1977 330,1966 336,1956 341,1946 346,1935 352,1925 358,1915 363,1904 368,1894 374,1883 378,1872 384,1862 389,1851 395,1841 401,1831 408,1820 415,1812 422,1801 430,1793 439,1795 443,1806 447,1817 452,1827 456,1838 462,1848 467,1859 472,1869 475,1880 480,1891 485,1901 490,1911 492,1923 497,1933 500,1944 509,1947 516,1954 521,1960 515,1972 490,1987 508,1984 503,1989 479,2002 474,2014 469,2026 463,2038 458,2050 452,2062 446,2074 440,2086 434,2098 428,2110 422,2122 416,2134 410,2146 404,2158 399,2168 393,2181 387,2193 381,2205 375,2217 369,2229 363,2241 357,2255 349,2244 342,2232 335,2220 327,2211 325,2202 325,2190 325,2178 325,2166 325,2154 325,2142 325,2130 325,2118 325,2106 325,2094 325,2082 325,2070 325,2058 325,2046 325,2034 325,2022" fill="hsl(114, 50%, 70%)" fill-opacity="0.6" stroke="#333" stroke-width="1" data-region="42" data-area="46917" data-cx="401.3" data-cy="2010.0"/>
<text x="401.3" y="2010.0" font-size="10" text-anchor="middle" fill="#333">42</text>
<polygon points="819,2007 820,1999 822,1992 824,1984 826,1977 829,1970 831,1963 834,1955 836,1948 841,1943 845,1936 847,1928 851,1922 855,1915 859,1908 862,1901 866,1894 870,1888 876,1886 882,1889 889,1894 896,1898 903,1901 910,1906 917,1910 923,1914 923,1956 927,1917 929,1917 927,1947 933,1921 926,1970 938,1925 940,1927 942,1929 931,1976 938,1981 945,1985 951,1990 959,1992 965,1997 972,2000 979,2003 986,2007 995,2010 1000,2013 1009,2017 1014,2020 1014,2026 1014,2034 1013,2042 1011,2049 1010,2057 1010,2065 1008,2072 1007,2080 1006,2088 1006,2096 1004,2103 1003,2111 1002,2118 1001,2126 995,2127 987,2122 979,2118 971,2114 963,2109 955,2105 947,2101 939,2096 931,2092 923,2088 918,2082 911,2079 903,2077 895,2073 887,2068 879,2064 871,2060 863,2055 855,2051 847,2047 839,2042 831,2038 823,2034 817,2028 819,2021 819,2013" fill="hsl(151, 50%, 70%)" fill-opacity="0.6" stroke="#333" stroke-width="1" data-region="43" data-area="25323" data-cx="913.8" data-cy="2010.7"/>
<text x="913.8" y="2010.7" font-size="10" text-anchor="middle" fill="#333">43</text>
<polygon points="430,2143 436,2131 442,2119 448,2107 454,2095 460,2083 466,2071 472,2059 477,2047 483,2035 488,2023 494,2011 504,2011 515,2004 523,1992 529,1980 535,1968 543,1960 554,1963 565,1966 577,1967 588,1970 599,1973 610,1975 622,1977 633,1980 644,1983 656,1984 657,1996 657,2008 657,2020 659,2031 659,2043 659,2055 659,2067 659,2079 659,2091 654,2102 646,2111 637,2121 632,2131 629,2142 628,2154 626,2165 626,2177 626,2189 626,2201 626,2213 626,2225 625,2237 623,2248 621,2260 618,2271 615,2282 611,2293 603,2299 591,2298 579,2298 567,2296 555,2294 543,2290 531,2287 519,2284 507,2281 495,2279 483,2277 471,2275 459,2274 447,2273 435,2272 423,2272 411,2272 399,2271 387,2270 375,2270 371,2262 377,2250 383,2238 389,2226 395,2214 401,2202 407,2190 413,2178 419,2166 425,2154" fill="hsl(188, 50%, 70%)" fill-opacity="0.6" stroke="#333" stroke-width="1" data-region="44" data-area="62456" data-cx="537.7" data-cy="2141.4"/>
<text x="537.7" y="2141.4" font-size="10" text-anchor="middle" fill="#333">44</text>
<polygon points="1117,2146 1117,2139 1117,2132 1117,2125 1118,2118 1118,2111 1118,2104 1118,2097 1119,2090 1121,2087 1127,2089 1133,2090 1140,2091 1147,2091 1154,2089 1160,2085 1165,2081 1170,2075 1174,2070 1177,2066 1182,2057 1183,2056 1186,2050 1193,2035 1195,2032 1199,2030 1206,2032 1210,2038 1215,2042 1189,2088 1216,2044 1190,2088 1194,2082 1182,2102 1181,2104 1217,2047 1201,2073 1200,2075 1206,2066 1213,2056 1177,2115 1176,2121 1175,2128 1174,2135 1174,2141 1172,2148 1171,2155 1169,2161 1168,2168 1165,2174 1162,2180 1165,2270 1163,2267 1162,2265 1161,2269 1159,2256 1158,2251 1156,2242 1155,2192 1155,2241 1153,2234 1153,2227 1152,2224 1152,2219 1152,2204 1152,2198 1151,2210 1144,2261 1137,2257 1130,2253 1123,2250 1116,2246 1113,2241 1114,2234 1114,2227 1114,2220 1114,2213 1115,2206 1115,2199 1115,2192 1115,2185 1116,2178 1116,2171 1116,2164 1116,2157 1117,2150" fill="hsl(225, 50%, 70%)" fill-opacity="0.6" stroke="#333" stroke-width="1" data-region="45" data-area="10135" data-cx="1150.2" data-cy="2148.8"/>
<text x="1150.2" y="2148.8" font-size="10" text-anchor="middle" fill="#333">45</text>
<polygon points="1021,2134 1023,2129 1023,2123 1024,2117 1025,2112 1026,2106 1027,2100 1027,2094 1029,2089 1029,2083 1030,2077 1030,2071 1032,2066 1032,2060 1033,2054 1034,2048 1034,2042 1036,2037 1036,2031 1041,2034 1046,2038 1051,2041 1056,2045 1061,2048 1065,2052 1071,2055 1075,2059 1080,2063 1085,2066 1090,2069 1095,2073 1101,2075 1103,2081 1103,2087 1103,2092 1102,2099 1102,2105 1102,2111 1102,2117 1101,2123 1101,2129 1101,2135 1101,2141 1101,2147 1100,2153 1100,2159 1100,2165 1100,2171 1100,2177 1099,2183 1099,2189 1099,2195 1099,2201 1099,2207 1098,2213 1098,2219 1098,2225 1098,2231 1097,2236 1091,2233 1085,2230 1079,2227 1073,2224 1067,2221 1061,2218 1055,2215 1049,2212 1043,2209 1037,2206 1031,2202 1025,2199 1019,2196 1014,2193 1014,2187 1014,2184 1016,2176 1017,2170 1018,2164 1019,2159 1020,2153 1020,2147 1021,2141 1021,2135" fill="hsl(262, 50%, 70%)" fill-opacity="0.6" stroke="#333" stroke-width="1" data-region="46" data-area="12977" data-cx="1061.9" data-cy="2137.3"/>
<text x="1061.9" y="2137.3" font-size="10" text-anchor="middle" fill="#333">46</text>
<polygon points="799,2177 799,2170 800,2163 800,2156 802,2150 802,2143 803,2136 804,2129 804,2122 806,2116 807,2109 809,2103 809,2096 810,2089 811,2082 813,2076 813,2069 814,2062 815,2056 816,2049 823,2053 830,2056 837,2060 844,2064 851,2068 858,2071 865,2075 872,2079 879,2083 886,2086 893,2090 899,2095 899,2100 897,2108 896,2115 894,2123 893,2129 892,2136 891,2143 890,2150 888,2157 887,2164 886,2171 885,2178 883,2185 882,2192 881,2199 880,2206 878,2213 877,2220 876,2227 875,2234 873,2241 872,2248 871,2255 870,2262 868,2269 867,2276 866,2283 865,2290 863,2296 856,2294 850,2293 843,2292 837,2290 830,2289 823,2288 816,2288 810,2286 803,2285 797,2283 793,2280 793,2273 793,2266 793,2259 794,2252 794,2245 794,2238 794,2231 796,2225 796,2218 796,2211 796,2204 797,2197 797,2190 797,2183" fill="hsl(299, 50%, 70%)" fill-opacity="0.6" stroke="#333" stroke-width="1" data-region="47" data-area="18673" data-cx="841.2" data-cy="2176.0"/>
<text x="841.2" y="2176.0" font-size="10" text-anchor="middle" fill="#333">47</text>
<polygon points="894,2217 895,2211 896,2205 897,2199 899,2193 900,2187 901,2181 902,2175 903,2169 904,2163 905,2157 906,2151 907,2145 908,2139 909,2133 910,2127 911,2121 912,2115 913,2109 915,2103 920,2105 926,2108 932,2111 938,2115 944,2118 950,2121 956,2124 962,2128 968,2131 974,2134 980,2137 986,2140 992,2144 998,2147 997,2153 997,2159 995,2164 995,2170 994,2176 993,2182 993,2188 991,2193 991,2199 990,2205 990,2210 988,2216 987,2222 987,2228 985,2233 985,2239 984,2245 982,2250 979,2255 976,2261 973,2266 969,2270 966,2275 962,2280 959,2285 955,2290 953,2296 950,2301 946,2305 944,2311 941,2316 938,2321 936,2327 932,2330 927,2326 922,2323 917,2319 912,2317 907,2313 902,2310 898,2307 892,2305 887,2302 881,2301 880,2297 881,2291 882,2285 883,2279 884,2273 885,2267 886,2261 887,2255 889,2249 890,2243 891,2237 892,2231 893,2225 894,2219" fill="hsl(336, 50%, 70%)" fill-opacity="0.6" stroke="#333" stroke-width="1" data-region="48" data-area="17007" data-cx="937.7" data-cy="2215.5"/>
<text x="937.7" y="2215.5" font-size="10" text-anchor="middle" fill="#333">48</text>
<polygon points="1293,2404 1303,2385 1311,2366 1315,2346 1316,2324 1316,2302 1315,2281 1310,2260 1302,2240 1314,2222 1320,2201 1315,2180 1307,2165 1311,2145 1322,2128 1340,2140 1361,2145 1382,2147 1403,2145 1424,2145 1444,2148 1465,2154 1485,2161 1503,2173 1521,2186 1541,2193 1562,2197 1583,2201 1603,2206 1624,2209 1645,2213 1666,2216 1686,2224 1678,2244 1657,2266 1634,2289 1628,2308 1636,2330 1647,2352 1659,2374 1670,2396 1678,2418 1685,2440 1686,2462 1670,2481 1648,2491 1626,2498 1604,2504 1582,2509 1560,2514 1538,2516 1516,2522 1586,2732 1571,2706 1561,2693 1508,2534 1545,2671 1507,2544 1508,2551 1517,2587 1518,2595 1528,2640 1524,2628 1537,2706 1515,2690 1493,2672 1471,2654 1449,2637 1427,2621 1405,2607 1383,2594 1361,2582 1339,2572 1317,2563 1295,2553 1273,2543 1251,2532 1237,2517 1243,2497 1249,2477 1259,2459 1270,2440 1280,2422" fill="hsl(13, 50%, 70%)" fill-opacity="0.6" stroke="#333" stroke-width="1" data-region="49" data-area="151353" data-cx="1462.9" data-cy="2387.4"/>
<text x="1462.9" y="2387.4" font-size="10" text-anchor="middle" fill="#333">49</text>
<polygon points="977,2300 979,2296 983,2292 986,2288 989,2284 991,2279 994,2275 997,2271 1000,2267 1004,2264 1004,2259 1007,2255 1006,2250 1007,2245 1007,2240 1008,2235 1008,2230 1009,2226 1010,2221 1010,2216 1011,2211 1016,2213 1021,2216 1026,2219 1031,2221 1036,2224 1041,2226 1046,2229 1051,2231 1056,2234 1061,2237 1066,2239 1071,2242 1076,2244 1081,2247 1086,2249 1091,2252 1096,2255 1101,2257 1106,2260 1104,2265 1101,2270 1099,2275 1096,2280 1093,2285 1091,2290 1088,2295 1086,2300 1083,2305 1080,2310 1078,2315 1075,2320 1073,2325 1070,2330 1067,2335 1065,2340 1062,2345 1059,2350 1057,2355 1054,2360 1052,2365 1049,2370 1046,2375 1044,2380 1041,2385 1038,2383 1035,2379 1031,2378 1027,2375 1023,2370 1018,2368 1014,2365 1010,2363 1005,2363 1000,2365 997,2364 992,2363 987,2362 983,2360 978,2359 974,2357 969,2355 965,2353 961,2350 957,2347 954,2344 956,2340 957,2335 959,2331 962,2327 964,2322 967,2318 969,2314 971,2309 973,2305 976,2301" fill="hsl(50, 50%, 70%)" fill-opacity="0.6" stroke="#333" stroke-width="1" data-region="50" data-area="13906" data-cx="1030.2" data-cy="2300.2"/>
<text x="1030.2" y="2300.2" font-size="10" text-anchor="middle" fill="#333">50</text>
<polygon points="325,2398 325,2384 325,2370 325,2356 325,2342 325,2328 325,2314 325,2300 325,2286 325,2272 325,2258 325,2244 338,2258 335,2253 332,2247 362,2283 374,2286 388,2287 402,2288 416,2288 430,2288 444,2289 458,2290 472,2292 486,2294 500,2296 514,2299 528,2303 542,2308 556,2311 570,2313 584,2314 598,2314 601,2323 598,2336 548,2363 596,2348 535,2371 594,2356 570,2366 577,2368 584,2369 535,2391 544,2403 557,2405 545,2405 557,2407 581,2416 575,2428 568,2440 563,2453 560,2466 557,2479 555,2492 554,2506 552,2520 551,2534 548,2547 534,2546 520,2544 506,2543 492,2541 478,2540 464,2538 450,2537 436,2535 422,2534 408,2532 394,2531 380,2529 366,2528 352,2527 338,2525 325,2523 325,2509 325,2495 325,2481 325,2467 325,2453 325,2439 325,2425 325,2411" fill="hsl(87, 50%, 70%)" fill-opacity="0.6" stroke="#333" stroke-width="1" data-region="51" data-area="59795" data-cx="444.3" data-cy="2409.2"/>
<text x="444.3" y="2409.2" font-size="10" text-anchor="middle" fill="#333">51</text>
<polygon points="1528,2561 1524,2540 1542,2532 1563,2530 1584,2526 1605,2521 1626,2515 1647,2509 1668,2500 1689,2488 1702,2467 1702,2446 1697,2424 1692,2406 1690,2401 1653,2327 1677,2374 1676,2371 1647,2300 1666,2280 1686,2259 1706,2243 1719,2260 1736,2275 1755,2283 1773,2291 1793,2296 1812,2302 1831,2309 1845,2322 1858,2339 1876,2348 1884,2363 1882,2383 1884,2403 1890,2422 1900,2440 1910,2458 1915,2478 1917,2498 1921,2518 1925,2538 1933,2556 1941,2575 1950,2593 1960,2612 1967,2630 1975,2648 1990,2662 1986,2682 1980,2701 1973,2720 1967,2739 1959,2758 1948,2775 1929,2783 1910,2789 1894,2802 1881,2819 1869,2837 1858,2855 1846,2872 1832,2887 1812,2873 1791,2858 1770,2843 1749,2827 1728,2812 1707,2796 1686,2781 1665,2766 1644,2750 1624,2733 1606,2722 1589,2701 1572,2680 1557,2659 1545,2638 1538,2617 1534,2596 1531,2575" fill="hsl(124, 50%, 70%)" fill-opacity="0.6" stroke="#333" stroke-width="1" data-region="52" data-area="163709" data-cx="1771.8" data-cy="2584.3"/>
<text x="1771.8" y="2584.3" font-size="10" text-anchor="middle" fill="#333">52</text>
<polygon points="1067,2372 1070,2366 1073,2360 1076,2354 1079,2348 1082,2342 1086,2336 1089,2330 1092,2324 1095,2318 1098,2312 1101,2306 1104,2300 1107,2294 1111,2288 1114,2282 1117,2276 1120,2270 1125,2270 1131,2273 1137,2276 1143,2279 1149,2282 1155,2285 1161,2288 1167,2291 1173,2294 1179,2298 1182,2303 1185,2308 1186,2313 1184,2320 1182,2325 1181,2331 1179,2336 1178,2340 1173,2347 1172,2352 1169,2357 1167,2363 1165,2368 1163,2373 1161,2379 1159,2384 1158,2390 1156,2395 1155,2401 1153,2406 1153,2412 1153,2416 1155,2423 1155,2429 1156,2435 1155,2441 1153,2446 1152,2452 1150,2457 1149,2463 1148,2469 1146,2474 1143,2476 1138,2471 1133,2467 1129,2463 1124,2458 1119,2455 1115,2450 1110,2446 1105,2442 1100,2438 1096,2433 1091,2429 1086,2425 1082,2421 1077,2417 1072,2412 1067,2409 1063,2404 1058,2400 1054,2396 1057,2390 1060,2384 1064,2378" fill="hsl(161, 50%, 70%)" fill-opacity="0.6" stroke="#333" stroke-width="1" data-region="53" data-area="14842" data-cx="1124.6" data-cy="2366.4"/>
<text x="1124.6" y="2366.4" font-size="10" text-anchor="middle" fill="#333">53</text>
<polygon points="787,2372 787,2367 787,2362 788,2357 788,2352 788,2347 788,2342 789,2338 790,2333 790,2328 790,2323 790,2318 791,2313 792,2308 794,2306 799,2306 803,2308 808,2308 813,2309 818,2309 822,2311 827,2311 832,2313 836,2313 841,2315 846,2316 850,2316 855,2318 860,2319 865,2320 869,2322 874,2323 878,2325 883,2326 887,2329 892,2330 896,2333 900,2336 904,2339 908,2341 912,2344 916,2347 921,2350 925,2352 929,2356 933,2359 937,2362 941,2364 945,2368 949,2371 950,2374 947,2379 944,2384 941,2389 938,2394 935,2399 932,2404 929,2409 926,2414 923,2419 920,2424 917,2429 914,2434 911,2439 908,2444 905,2449 903,2454 898,2454 893,2452 888,2449 883,2445 878,2442 873,2439 868,2437 863,2434 858,2432 853,2430 848,2427 843,2425 838,2423 833,2420 828,2418 823,2416 818,2413 813,2411 808,2409 803,2406 798,2404 793,2402 788,2399 785,2396 785,2391 785,2386 787,2382 787,2377" fill="hsl(198, 50%, 70%)" fill-opacity="0.6" stroke="#333" stroke-width="1" data-region="54" data-area="15624" data-cx="860.8" data-cy="2375.8"/>
<text x="860.8" y="2375.8" font-size="10" text-anchor="middle" fill="#333">54</text>
<polygon points="2005,2701 2010,2678 1995,2636 2001,2641 1983,2607 1966,2574 1957,2556 2010,2649 1947,2531 1942,2512 1939,2490 1908,2408 1917,2424 1906,2394 1924,2433 1929,2441 1906,2360 1925,2359 1949,2360 1972,2362 1986,2365 1993,2398 2003,2417 2017,2436 2031,2453 2045,2475 2055,2512 2055,2529 2063,2539 2085,2545 2109,2545 2134,2542 2156,2541 2179,2538 2199,2538 2199,2562 2199,2586 2198,2610 2199,2634 2199,2658 2199,2682 2199,2706 2199,2730 2199,2754 2199,2778 2199,2802 2199,2826 2199,2850 2199,2874 2199,2898 2199,2922 2199,2946 2189,2961 2166,2964 2144,2970 2122,2976 2100,2985 2079,2995 2058,3004 2036,3011 2014,3017 1991,3022 1968,3024 1960,3003 1958,2980 1948,2960 1926,2954 1906,2940 1887,2925 1969,2787 1973,2780 1980,2769 1946,2802 1943,2803 1875,2871 1884,2858 1892,2845 1929,2806 1909,2821 1992,2741 1998,2719" fill="hsl(235, 50%, 70%)" fill-opacity="0.6" stroke="#333" stroke-width="1" data-region="55" data-area="130978" data-cx="2054.6" data-cy="2739.1"/>
<text x="2054.6" y="2739.1" font-size="10" text-anchor="middle" fill="#333">55</text>
<polygon points="954,2475 950,2468 944,2464 938,2462 934,2461 924,2459 922,2454 926,2447 930,2440 934,2433 938,2426 942,2419 947,2412 951,2405 955,2398 959,2391 963,2384 968,2380 974,2382 981,2383 987,2385 994,2386 1000,2388 1007,2388 1013,2393 1018,2396 1024,2401 1030,2406 1035,2411 1041,2416 1046,2420 1052,2426 1057,2430 1063,2435 1068,2441 1074,2445 1079,2450 1085,2455 1090,2460 1096,2465 1102,2469 1107,2475 1111,2479 1119,2485 1123,2490 1128,2494 1134,2499 1135,2506 1132,2512 1129,2518 1127,2524 1123,2530 1118,2536 1112,2539 1106,2541 1099,2542 1092,2542 1085,2542 1078,2542 1071,2542 1064,2543 1058,2544 1051,2545 1044,2546 1038,2548 1031,2548 1024,2549 1018,2551 1011,2552 1004,2552 998,2554 991,2555 988,2548 985,2541 982,2534 979,2527 976,2520 973,2513 969,2506 966,2499 963,2492 960,2485 956,2478" fill="hsl(272, 50%, 70%)" fill-opacity="0.6" stroke="#333" stroke-width="1" data-region="56" data-area="21527" data-cx="1024.4" data-cy="2474.6"/>
<text x="1024.4" y="2474.6" font-size="10" text-anchor="middle" fill="#333">56</text>
<polygon points="737,2516 738,2510 738,2504 738,2498 738,2492 738,2486 738,2480 738,2474 738,2468 739,2462 742,2457 744,2453 749,2456 755,2456 761,2456 767,2455 772,2453 777,2446 781,2429 781,2433 783,2418 783,2421 784,2416 786,2417 792,2419 798,2422 804,2425 810,2428 816,2431 822,2433 828,2436 834,2439 840,2442 846,2445 852,2448 852,2453 848,2459 844,2465 841,2471 837,2477 833,2483 830,2489 826,2495 822,2501 819,2507 815,2513 811,2519 808,2525 804,2531 801,2537 797,2543 793,2549 790,2555 786,2561 782,2567 779,2573 775,2579 771,2586 768,2590 764,2597 760,2604 757,2608 753,2615 749,2622 746,2626 742,2633 738,2638 734,2635 730,2631 729,2625 727,2620 726,2614 726,2608 726,2602 725,2596 725,2590 726,2584 726,2578 726,2572 727,2566 727,2562 731,2555 732,2550 734,2544 735,2539 736,2533 737,2527 737,2521" fill="hsl(309, 50%, 70%)" fill-opacity="0.6" stroke="#333" stroke-width="1" data-region="57" data-area="13381" data-cx="776.5" data-cy="2512.2"/>
<text x="776.5" y="2512.2" font-size="10" text-anchor="middle" fill="#333">57</text>
<polygon points="802,2566 807,2559 811,2552 815,2545 819,2538 824,2531 828,2524 832,2517 836,2510 841,2503 845,2496 849,2489 854,2482 858,2475 862,2469 866,2462 872,2458 879,2463 886,2467 893,2470 900,2472 907,2473 914,2474 921,2475 928,2476 935,2479 941,2484 944,2491 948,2498 951,2505 954,2512 957,2519 960,2526 963,2533 966,2540 969,2547 973,2554 969,2558 961,2559 951,2561 958,2561 950,2562 941,2564 933,2565 926,2566 918,2568 912,2571 906,2576 901,2581 895,2585 889,2589 884,2594 878,2598 872,2603 866,2607 861,2612 855,2618 850,2621 844,2626 839,2630 833,2634 827,2639 822,2643 816,2649 810,2653 803,2658 798,2662 793,2663 787,2666 780,2669 774,2671 767,2671 761,2668 758,2662 756,2656 752,2650 755,2643 760,2636 764,2629 768,2622 772,2615 777,2608 781,2601 785,2594 789,2587 794,2580 798,2573" fill="hsl(346, 50%, 70%)" fill-opacity="0.6" stroke="#333" stroke-width="1" data-region="58" data-area="20439" data-cx="862.0" data-cy="2559.3"/>
<text x="862.0" y="2559.3" font-size="10" text-anchor="middle" fill="#333">58</text>
<polygon points="325,2628 325,2618 325,2608 325,2598 325,2588 325,2578 325,2568 325,2558 325,2548 327,2540 337,2541 347,2542 357,2543 367,2544 377,2545 387,2546 397,2547 407,2549 417,2550 427,2551 437,2552 447,2553 457,2554 467,2555 477,2556 487,2557 497,2558 507,2559 517,2560 455,2601 453,2603 533,2562 539,2562 446,2610 545,2567 473,2601 477,2601 542,2579 445,2616 540,2588 497,2603 502,2604 509,2604 517,2604 523,2604 536,2603 447,2623 455,2630 459,2636 451,2644 445,2652 438,2660 431,2668 424,2675 417,2683 410,2691 404,2699 396,2708 390,2714 383,2723 379,2727 369,2742 363,2747 355,2756 348,2761 339,2766 330,2770 325,2770 325,2760 325,2750 325,2740 325,2730 325,2720 325,2710 325,2700 325,2690 325,2680 325,2670 325,2660 325,2650 325,2640 325,2630" fill="hsl(23, 50%, 70%)" fill-opacity="0.6" stroke="#333" stroke-width="1" data-region="59" data-area="25751" data-cx="397.5" data-cy="2626.8"/>
<text x="397.5" y="2626.8" font-size="10" text-anchor="middle" fill="#333">59</text>
<polygon points="843,2853 1020,2848 854,2830 990,2834 863,2811 964,2817 875,2780 888,2750 904,2720 921,2691 942,2665 969,2646 1000,2636 1033,2632 1067,2631 1100,2629 1124,2647 1143,2672 1174,2605 1184,2595 1194,2590 1202,2602 1206,2642 1209,2654 1222,2600 1228,2583 1263,2556 1297,2572 1331,2586 1365,2603 1399,2623 1433,2646 1467,2672 1501,2700 1516,2711 1427,2753 1449,2750 1534,2725 1388,2780 1545,2732 1389,2789 1394,2823 1400,2857 1406,2891 1412,2925 1418,2959 1417,2991 1386,2998 1379,3032 1374,3066 1360,3095 1326,3087 1292,3079 1258,3070 1224,3057 1195,3084 1176,3118 1159,3153 1140,3186 1108,3219 1089,3253 1063,3257 1036,3223 1016,3197 1139,2911 997,3153 997,3152 1018,3115 1035,3085 1066,3031 1079,3008 1089,2990 1119,2897 1085,2880 910,2914 929,2901 869,2904 846,2899 832,2887 835,2873 1036,2856" fill="hsl(60, 50%, 70%)" fill-opacity="0.6" stroke="#333" stroke-width="1" data-region="60" data-area="224045" data-cx="1185.1" data-cy="2851.7"/>
<text x="1185.1" y="2851.7" font-size="10" text-anchor="middle" fill="#333">60</text>
<polygon points="451,2712 453,2712 455,2710 456,2709 458,2708 459,2706 461,2705 463,2705 464,2703 466,2702 468,2701 470,2701 471,2699 473,2699 475,2697 476,2696 478,2696 480,2695 482,2695 484,2693 485,2693 487,2692 489,2692 491,2692 493,2692 495,2693 497,2693 498,2695 499,2697 501,2698 503,2699 504,2700 506,2702 507,2703 508,2705 509,2707 511,2708 512,2710 513,2712 515,2713 515,2715 516,2716 517,2718 516,2719 515,2719 514,2719 508,2718 507,2718 506,2718 504,2718 502,2718 500,2718 498,2718 496,2719 494,2719 492,2720 491,2721 489,2722 487,2723 486,2725 484,2727 484,2729 482,2730 481,2731 479,2733 477,2733 476,2734 474,2735 473,2733 471,2733 469,2733 467,2732 466,2730 464,2729 464,2727 462,2726 460,2725 459,2724 457,2722 455,2722 454,2720 452,2719 451,2717 450,2715 451,2714" fill="hsl(97, 50%, 70%)" fill-opacity="0.6" stroke="#333" stroke-width="1" data-region="61" data-area="1619" data-cx="481.9" data-cy="2712.2"/>
<text x="481.9" y="2712.2" font-size="10" text-anchor="middle" fill="#333">61</text>
<polygon points="1425,2908 1422,2892 1419,2876 1417,2860 1414,2844 1411,2828 1409,2812 1406,2796 1404,2780 1414,2771 1430,2769 1446,2767 1462,2764 1478,2762 1494,2759 1510,2757 1526,2755 1542,2752 1558,2750 1574,2748 1590,2748 1606,2743 1621,2754 1637,2766 1653,2778 1669,2789 1685,2801 1701,2812 1717,2824 1733,2836 1749,2848 1765,2859 1781,2871 1797,2883 1813,2894 1826,2907 1837,2918 1853,2929 1865,2938 1876,2947 1891,2957 1903,2966 1915,2974 1934,2983 1937,2993 1938,3009 1933,3018 1920,3018 1905,3017 1887,3015 1871,3014 1855,3013 1839,3012 1823,3011 1807,3010 1791,3009 1774,3007 1760,3007 1743,3005 1727,3004 1711,3003 1695,3002 1679,3001 1663,3000 1647,2999 1631,2998 1615,2997 1599,2995 1583,2994 1567,2993 1551,2992 1535,2991 1519,2990 1503,2989 1487,2988 1471,2987 1455,2985 1439,2984 1436,2970 1433,2954 1430,2938 1428,2922" fill="hsl(134, 50%, 70%)" fill-opacity="0.6" stroke="#333" stroke-width="1" data-region="62" data-area="90791" data-cx="1625.8" data-cy="2895.3"/>
<text x="1625.8" y="2895.3" font-size="10" text-anchor="middle" fill="#333">62</text>
<polygon points="660,2854 662,2851 664,2847 667,2844 669,2841 672,2838 674,2834 677,2831 679,2828 681,2824 685,2823 687,2819 690,2816 693,2813 695,2810 698,2807 701,2803 704,2800 708,2799 711,2796 715,2796 719,2796 723,2796 727,2796 731,2797 735,2797 738,2799 742,2800 746,2801 749,2804 752,2807 755,2809 757,2812 760,2815 763,2818 764,2822 766,2825 767,2829 767,2833 768,2837 769,2840 768,2844 767,2847 767,2851 764,2854 761,2857 757,2858 753,2858 750,2860 746,2861 742,2862 738,2863 735,2864 731,2865 728,2867 724,2867 720,2868 716,2869 713,2871 709,2872 706,2874 703,2877 699,2878 696,2882 693,2885 690,2888 688,2890 684,2896 683,2897 680,2900 677,2903 673,2906 670,2907 666,2908 662,2909 659,2911 655,2911 651,2911 647,2911 644,2909 640,2908 637,2906 633,2904 630,2901 628,2898 631,2894 631,2892 633,2889 635,2885 637,2882 640,2879 640,2878 644,2874 649,2870 650,2867 653,2864 656,2861 657,2857" fill="hsl(171, 50%, 70%)" fill-opacity="0.6" stroke="#333" stroke-width="1" data-region="63" data-area="8201" data-cx="702.0" data-cy="2850.7"/>
<text x="702.0" y="2850.7" font-size="10" text-anchor="middle" fill="#333">63</text>
<polygon points="426,2836 426,2835 425,2834 425,2833 425,2832 424,2831 424,2830 422,2828 424,2829 423,2828 422,2827 422,2826 422,2825 421,2824 421,2823 422,2823 423,2823 424,2824 425,2824 426,2824 427,2824 428,2825 429,2826 428,2824 430,2827 431,2827 432,2827 433,2829 433,2828 434,2830 435,2830 436,2831 437,2831 438,2831 438,2832 439,2833 440,2834 441,2834 441,2835 442,2836 443,2837 445,2838 444,2838 445,2839 446,2840 448,2841 447,2841 448,2842 448,2843 449,2844 449,2845 451,2847 449,2846 450,2847 451,2848 451,2849 451,2850 450,2850 449,2851 448,2852 447,2851 445,2849 444,2848 446,2851 445,2850 443,2848 442,2848 441,2848 440,2847 439,2846 439,2847 438,2845 437,2844 436,2843 436,2844 435,2842 434,2841 433,2841 432,2841 431,2840 431,2839 430,2838 429,2838 428,2837 427,2837 426,2837" fill="hsl(208, 50%, 70%)" fill-opacity="0.6" stroke="#333" stroke-width="1" data-region="64" data-area="355" data-cx="436.1" data-cy="2837.2"/>
<text x="436.1" y="2837.2" font-size="10" text-anchor="middle" fill="#333">64</text>
<polygon points="709,3016 707,3002 713,2989 723,2978 733,2967 746,2958 758,2947 767,2935 779,2926 791,2916 803,2906 815,2896 828,2907 843,2915 858,2919 873,2921 888,2924 903,2929 913,2944 960,2852 959,2858 953,2876 952,2882 946,2899 926,2945 941,2917 935,2931 982,2848 997,2856 1012,2863 1027,2870 1042,2877 1057,2884 1072,2892 1087,2899 1102,2907 1117,2915 1106,2929 1097,2944 1088,2959 1080,2974 1071,2989 1062,3004 1054,3019 1045,3034 1037,3049 1028,3064 1020,3079 1011,3094 1002,3109 994,3124 986,3139 978,3154 970,3169 955,3161 940,3153 925,3145 910,3137 901,3125 890,3116 875,3115 871,3126 862,3132 849,3126 835,3122 821,3118 815,3117 782,3156 783,3149 807,3116 756,3170 799,3118 788,3128 740,3168 731,3160 729,3145 727,3131 724,3117 722,3102 720,3088 717,3074 716,3059 713,3045 711,3031" fill="hsl(245, 50%, 70%)" fill-opacity="0.6" stroke="#333" stroke-width="1" data-region="65" data-area="79069" data-cx="898.9" data-cy="3013.3"/>
<text x="898.9" y="3013.3" font-size="10" text-anchor="middle" fill="#333">65</text>
<polygon points="1377,3123 1381,3098 1389,3073 1393,3048 1398,3023 1411,3007 1434,3002 1458,3002 1481,3003 1508,3005 1533,3007 1558,3009 1584,3011 1608,3012 1633,3014 1658,3016 1683,3017 1708,3019 1733,3021 1758,3023 1783,3024 1808,3026 1833,3028 1858,3029 1883,3031 1908,3033 1933,3035 1956,3044 1979,3046 1999,3044 2020,3038 2149,2991 2031,3035 2027,3037 2054,3028 2050,3030 2060,3027 2189,2983 2199,2994 2199,3019 2199,3044 2199,3069 2199,3094 2199,3119 2199,3144 2195,3167 2170,3182 2145,3196 2120,3210 2095,3225 2070,3239 2045,3255 2020,3268 1995,3269 1970,3270 1945,3273 1920,3287 1895,3303 1870,3309 1845,3314 1820,3317 1795,3316 1770,3315 1745,3313 1720,3311 1702,3288 1679,3263 1659,3238 1639,3213 1616,3189 1586,3186 1566,3185 1541,3183 1516,3182 1491,3181 1466,3181 1439,3182 1416,3184 1383,3188 1372,3188 1360,3176 1368,3151 1376,3126" fill="hsl(282, 50%, 70%)" fill-opacity="0.6" stroke="#333" stroke-width="1" data-region="66" data-area="184084" data-cx="1804.2" data-cy="3135.5"/>
<text x="1804.2" y="3135.5" font-size="10" text-anchor="middle" fill="#333">66</text>
<polygon points="1155,3352 1144,3330 1128,3308 1107,3288 1099,3270 1111,3248 1124,3226 1145,3204 1163,3182 1174,3160 1184,3138 1195,3116 1208,3094 1225,3074 1247,3083 1269,3091 1291,3096 1301,3098 1338,3183 1351,3205 1329,3104 1349,3158 1352,3147 1351,3110 1372,3205 1377,3205 1399,3202 1421,3200 1443,3198 1465,3197 1487,3197 1509,3198 1531,3199 1553,3200 1575,3202 1597,3201 1619,3215 1637,3237 1654,3259 1673,3281 1693,3303 1700,3325 1695,3347 1692,3369 1688,3391 1684,3413 1680,3435 1676,3457 1673,3479 1669,3501 1665,3523 1661,3545 1657,3566 1635,3566 1613,3566 1591,3566 1569,3566 1547,3566 1525,3566 1503,3566 1481,3566 1459,3566 1437,3566 1415,3566 1393,3566 1371,3566 1349,3566 1327,3566 1305,3566 1283,3566 1261,3566 1239,3566 1217,3566 1196,3565 1191,3546 1184,3524 1177,3502 1174,3480 1172,3458 1169,3436 1167,3414 1164,3392 1160,3370" fill="hsl(319, 50%, 70%)" fill-opacity="0.6" stroke="#333" stroke-width="1" data-region="67" data-area="208754" data-cx="1398.7" data-cy="3358.9"/>
<text x="1398.7" y="3358.9" font-size="10" text-anchor="middle" fill="#333">67</text>
<polygon points="588,3425 600,3407 612,3390 625,3373 639,3357 652,3341 666,3324 681,3308 696,3293 713,3278 730,3264 747,3251 765,3241 782,3229 800,3218 818,3208 835,3196 853,3186 871,3176 888,3164 902,3151 923,3163 944,3174 965,3185 986,3190 1005,3210 1021,3231 1037,3252 1056,3273 1077,3288 1098,3302 1118,3322 1132,3343 1141,3364 1146,3385 1149,3406 1152,3427 1154,3448 1157,3469 1159,3490 1163,3511 1169,3532 1176,3553 1172,3566 1151,3566 1130,3566 1109,3566 1088,3566 1067,3566 1046,3566 1025,3566 1004,3566 983,3566 962,3566 941,3566 920,3566 899,3566 878,3566 857,3566 836,3566 815,3566 794,3566 773,3566 752,3566 731,3566 710,3566 689,3566 668,3566 647,3566 626,3566 605,3566 584,3566 563,3566 542,3566 521,3566 518,3552 523,3532 530,3513 540,3496 551,3478 560,3461 574,3444 586,3427" fill="hsl(356, 50%, 70%)" fill-opacity="0.6" stroke="#333" stroke-width="1" data-region="68" data-area="182997" data-cx="871.4" data-cy="3407.8"/>
<text x="871.4" y="3407.8" font-size="10" text-anchor="middle" fill="#333">68</text>
<polygon points="1699,3420 1703,3400 1706,3380 1710,3360 1713,3340 1723,3328 1743,3329 1763,3331 1783,3332 1803,3332 1823,3333 1843,3331 1863,3328 1883,3323 1903,3318 1923,3307 1943,3291 1963,3287 1983,3286 2003,3285 2023,3284 2043,3276 2063,3263 2083,3251 2103,3239 2123,3228 2143,3216 2163,3205 2183,3193 2199,3188 2199,3208 2199,3228 2199,3248 2199,3268 2199,3288 2199,3308 2199,3328 2199,3348 2199,3368 2199,3388 2199,3408 2199,3428 2199,3448 2199,3468 2199,3488 2199,3508 2199,3528 2199,3548 2197,3566 2177,3566 2157,3566 2137,3566 2117,3566 2097,3566 2077,3566 2057,3566 2037,3566 2017,3566 1997,3566 1977,3566 1957,3566 1937,3566 1917,3566 1897,3566 1877,3566 1857,3566 1837,3566 1817,3566 1797,3566 1777,3566 1757,3566 1737,3566 1717,3566 1697,3566 1677,3566 1677,3549 1681,3529 1684,3509 1687,3489 1691,3469 1694,3449 1698,3429" fill="hsl(33, 50%, 70%)" fill-opacity="0.6" stroke="#333" stroke-width="1" data-region="69" data-area="141259" data-cx="1968.8" data-cy="3424.5"/>
<text x="1968.8" y="3424.5" font-size="10" text-anchor="middle" fill="#333">69</text>
</svg>